<svg width="108" height="74" fill="none" xmlns="http://www.w3.org/2000/svg"><path d="M53.157 43.17c-1.289 1.546-5.18 4.175-10.438 2.32-6.571-2.32-15.462-13.53-20.874-13.144-5.412.386-8.892 6.572-12.37 1.546-3.48-5.025-1.547-16.236-.774-20.488.454-2.495 1.306-6.187 1.075-8.891M53.157 43.17c3.093-10.051 0-14.303-4.64-15.463-4.639-1.16-10.824 5.412-15.462 1.933-4.64-3.48-1.16-10.438 2.32-14.303 3.478-3.866 4.638-8.892 1.159-12.757-3.48-3.866-10.051.386-15.463 1.933-4.33 1.237-9.334.515-11.295 0M53.157 43.17c-3.565 5.11-8.445 13.617-21.007 14.303m-3.347 0c-12.95-.664-24.741-13.53-27.06-31.312C-.578 8.378 2.902.647 7.154 1.033c1.757.16 2.458 1.575 2.621 3.48m19.027 52.96v7.732l-13.53 4.638c.128 1.031 3.324 3.093 15.076 3.093 11.751 0 14.947-2.062 15.076-3.093L32.15 65.205v-7.732m-3.347 0a32.59 32.59 0 003.347 0" stroke="#EA4C14" stroke-width="2" stroke-linecap="round" stroke-linejoin="round"/><ellipse cx="80.603" cy="24.228" rx="26.287" ry="7.345" stroke="#F5F5F5" stroke-width="2"/><path d="M77.51 54.82c-4.863.228-8.504 1.156-8.504 2.266 0 1.281 4.846 2.32 10.824 2.32s10.824-1.039 10.824-2.32c0-1.14-3.835-2.087-8.891-2.282" stroke="#F5F5F5" stroke-width="2"/><path d="M77.897 31.959v23.967h3.866V31.96" stroke="#F5F5F5" stroke-width="2" stroke-linecap="round" stroke-linejoin="round"/></svg>