<svg width="102" height="75" fill="none" xmlns="http://www.w3.org/2000/svg"><path d="M16.327 57.985c1.197 0-1.898-.68-4.383 1.726-2.486 2.407-1.268 5.644-.233 6.647-1.035-.287-3.954-1.205-5.77.836-1.667 1.876-.242 4.915.645 6.061" stroke="#F5F5F5" stroke-width="2" stroke-linecap="round" stroke-linejoin="round"/><path d="M17.523 73.526V13.088L39.057 1m0 0l21.535 9.785v11.512M39.057 1v72.526m13.16 0V26.902l16.75-9.21m0 0l16.748 7.483v35.112M68.966 17.693V62.59" stroke="#EA4C14" stroke-width="2" stroke-linecap="round" stroke-linejoin="round"/><path d="M17.523 60.862l21.534-2.302 13.16 1.151m0 4.03l16.75-1.152" stroke="#EA4C14" stroke-width="2" stroke-linecap="round" stroke-linejoin="round"/><path d="M65.59 73.696c-1.196-.96-3.11-4.43-1.196-7.653 1.915-3.223 5.583-2.878 7.178-2.302-.996-2.878-1.316-8.634 5.384-8.634s7.577 5.756 7.178 8.634c.2-1.535 2.393-3.454 5.384-2.302 2.483.956 1.994 4.029 1.794 5.18.798-.384 4.666-1.151 5.384 2.302.478 2.303-.997 4.007-1.197 4.775H65.591z" stroke="#F5F5F5" stroke-width="2" stroke-linecap="round" stroke-linejoin="round"/><path d="M1 74h99.071" stroke="#fff" stroke-width="2" stroke-linecap="round"/></svg>