<svg width="115" height="80" fill="none" xmlns="http://www.w3.org/2000/svg"><path d="M18.236 14.505a6 6 0 016-6h68.94a6 6 0 016 6v26.657a6 6 0 01-6 6H73.59a6 6 0 01-4.8-2.4l-3.277-4.37c-3.2-4.267-9.6-4.267-12.8 0l-3.278 4.37a6 6 0 01-4.8 2.4H24.236a6 6 0 01-6-6V14.505z" stroke="#F5F5F5" stroke-width="2"/><path d="M20.488 9.091v0A8.091 8.091 0 0128.58 1h60.252a8.091 8.091 0 018.091 8.091v0" stroke="#F5F5F5" stroke-width="2"/><circle cx="39.596" cy="27.427" r="7.538" stroke="#F5F5F5" stroke-width="2"/><circle cx="77.816" cy="27.427" r="7.538" stroke="#F5F5F5" stroke-width="2"/><path d="M1 49.322l7.72-1.16 1.558 6.95m22.034 16.501c-18.63-2.957-27.446-8.948-27.446-16.5 0-2.457 1.368-4.802 3.855-6.95m78.871 23.45c17.002-3.156 25.515-9.361 25.515-16.5 0-2.457-1.368-4.802-3.855-6.95" stroke="#EA4C14" stroke-width="2" stroke-linecap="round" stroke-linejoin="round"/><path d="M44.323 79.825c-.84 0-1.573-.1-2.2-.3-.627-.214-1.153-.494-1.58-.84a3.892 3.892 0 01-.98-1.14 3.058 3.058 0 01-.34-1.28c0-.12.04-.213.12-.28.08-.08.18-.12.3-.12h.98c.12 0 .227.033.32.1.107.053.187.166.24.34.133.48.36.853.68 1.12a2.94 2.94 0 001.14.56c.44.093.88.14 1.32.14.92 0 1.667-.22 2.24-.66.573-.44.86-1.087.86-1.94 0-.867-.26-1.487-.78-1.86-.52-.374-1.24-.56-2.16-.56h-1.9a.505.505 0 01-.34-.12.46.46 0 01-.12-.34v-.54c0-.12.02-.22.06-.3.053-.094.107-.174.16-.24l3.88-4.24h-5.9a.505.505 0 01-.34-.12.46.46 0 01-.12-.34v-.76c0-.147.04-.26.12-.34a.463.463 0 01.34-.14h7.98c.147 0 .26.046.34.14.093.08.14.193.14.34v.72a.46.46 0 01-.08.26c-.04.067-.087.133-.14.2l-3.86 4.3.32.02c.88.026 1.647.186 2.3.48a3.32 3.32 0 011.54 1.32c.373.573.56 1.3.56 2.18 0 .893-.22 1.653-.66 2.28-.44.627-1.047 1.113-1.82 1.46-.76.333-1.633.5-2.62.5zm12.412 0c-1.107 0-2.047-.22-2.82-.66-.774-.454-1.367-1.04-1.78-1.76-.4-.734-.6-1.527-.6-2.38 0-.4.046-.78.14-1.14a7.17 7.17 0 01.38-1.04c.16-.334.313-.627.46-.88.16-.267.3-.48.42-.64l3.8-5.3.24-.24c.093-.107.233-.16.42-.16h1.06c.12 0 .213.046.28.14.08.08.12.18.12.3a.66.66 0 01-.02.16.25.25 0 01-.06.1l-2.92 4.08c.16-.053.346-.087.56-.1.213-.027.406-.04.58-.04.733.013 1.4.147 2 .4.6.253 1.113.6 1.54 1.04.44.427.773.927 1 1.5.226.56.34 1.16.34 1.8 0 .84-.2 1.627-.6 2.36-.4.733-.987 1.327-1.76 1.78-.76.453-1.687.68-2.78.68zm-.02-1.7c.56 0 1.08-.12 1.56-.36s.866-.587 1.16-1.04c.306-.467.46-1.04.46-1.72 0-.667-.147-1.227-.44-1.68a2.7 2.7 0 00-1.18-1.04c-.48-.24-1-.36-1.56-.36s-1.08.12-1.56.36a2.85 2.85 0 00-1.18 1.04c-.294.453-.44 1.013-.44 1.68 0 .68.146 1.253.44 1.72.306.453.7.8 1.18 1.04s1 .36 1.56.36zm12.45 1.7c-.92 0-1.7-.14-2.34-.42a4.186 4.186 0 01-1.54-1.2 4.988 4.988 0 01-.88-1.74 9.43 9.43 0 01-.3-2.08l-.04-1.14v-1.22l.04-1.18a8.074 8.074 0 01.3-2.08c.2-.653.5-1.227.9-1.72.4-.507.914-.9 1.54-1.18.64-.293 1.414-.44 2.32-.44.92 0 1.694.147 2.32.44.64.28 1.16.673 1.56 1.18.4.493.694 1.067.88 1.72.2.653.307 1.347.32 2.08.014.373.02.767.02 1.18.014.413.014.82 0 1.22 0 .4-.006.78-.02 1.14a7.54 7.54 0 01-.32 2.08 4.988 4.988 0 01-.88 1.74c-.386.507-.9.907-1.54 1.2-.626.28-1.406.42-2.34.42zm0-1.72c1.04 0 1.807-.34 2.3-1.02.507-.68.767-1.613.78-2.8.027-.387.04-.76.04-1.12v-1.1c0-.373-.013-.74-.04-1.1-.013-1.16-.273-2.087-.78-2.78-.493-.707-1.26-1.06-2.3-1.06-1.026 0-1.793.353-2.3 1.06-.493.693-.753 1.62-.78 2.78 0 .36-.006.727-.02 1.1v1.1c.014.36.02.733.02 1.12.027 1.187.294 2.12.8 2.8.507.68 1.267 1.02 2.28 1.02zm10.435-7a3.12 3.12 0 01-1.48-.36 2.989 2.989 0 01-1.06-1.02 2.77 2.77 0 01-.4-1.46 2.7 2.7 0 01.4-1.46c.267-.427.62-.76 1.06-1a2.98 2.98 0 011.48-.38c.547 0 1.04.127 1.48.38.44.24.794.573 1.06 1 .267.426.4.913.4 1.46a2.76 2.76 0 01-.4 1.46c-.266.427-.62.767-1.06 1.02-.44.24-.933.36-1.48.36zm0-1.32c.454 0 .82-.14 1.1-.42.28-.28.42-.647.42-1.1 0-.454-.14-.82-.42-1.1-.28-.28-.646-.42-1.1-.42-.453 0-.82.14-1.1.42-.28.28-.42.646-.42 1.1 0 .453.14.82.42 1.1.28.28.647.42 1.1.42z" fill="#EA4C14"/></svg>