<svg width="98" height="70" fill="none" xmlns="http://www.w3.org/2000/svg"><path d="M29.333 40c6 0 13-6.084 13-14S35.916 11.666 28 11.666 13.667 18.084 13.667 26c0 1.675.287 3.283.815 4.778" stroke="#EA4C14" stroke-width="2"/><path d="M49 4.118v63.896m0-63.896S47.13 1 41.52 1H1v64.52h40.52c5.299 0 7.48 2.494 7.48 2.494m0-63.896S50.87 1 56.792 1H97v64.52H56.792c-5.921 0-7.792 2.494-7.792 2.494" stroke="#F5F5F5" stroke-width="2" stroke-linecap="round" stroke-linejoin="round"/><path d="M27.313 37.158v0c1.3 0 2.354 1.054 2.354 2.354V52.21h-2.354m0-15.053v0a2.69 2.69 0 00-2.69 2.69v2.27m2.69-4.96V34a3 3 0 00-3-3H1m23.622 11.118v4.96H10.33m14.292-4.96H10.33m0 0v4.96m0-4.96H1m9.33 4.96H1m26.313 5.133V57h-2.018l-3.363-4.79m5.38 0h-5.38m0 0H1M27.667 56H49M1 56h23.333" stroke="#F5F5F5" stroke-width="2" stroke-linejoin="round"/><path d="M78.667 12.344L76.333 9H81l-2.333 3.344zm0 0V24.05m0 0v0a2.006 2.006 0 00-2.042 2.005v22.242h1.75l2.333.036V26.092a2.042 2.042 0 00-2.041-2.042v0zm8.666-11.682L85 9h4.667l-2.334 3.368zm0 0v20.174m0 0v0a2.005 2.005 0 00-2.041 2.005v22.416h1.75l2.333.037V34.584a2.042 2.042 0 00-2.042-2.042v0z" stroke="#EA4C14" stroke-width="2" stroke-linejoin="round"/><path d="M57 55h13m-13-4h13m-13-8h13m-13 4h13m-13-8h13" stroke="#F5F5F5" stroke-width="2" stroke-linecap="round" stroke-linejoin="round"/></svg>