<svg width="83" height="77" fill="none" xmlns="http://www.w3.org/2000/svg"><path d="M11.721 1v9m0 44.996V10M1 11v54.497M11.721 9.999h70.222v65.996H11.721" stroke="#F5F5F5" stroke-width="2" stroke-linecap="round" stroke-linejoin="round"/><path d="M12.257 75.995C6.04 75.995 1 71.295 1 65.495c0-5.798 5.04-10.498 11.257-10.498M1 11.5C1 5.7 6.04 1 12.257 1" stroke="#F5F5F5" stroke-width="2" stroke-linejoin="round"/><path d="M39.596 19.998H22.442v23m17.154-23v13h8.04m-8.04-13h17.69m0 0h13.4v25.499m-13.4-25.498v16.499m-34.844 6.5v22.998h17.154M22.442 42.997h17.154v6.5m0 8.5v7.999m0 0h17.69m13.4-20.5v20.5h-13.4m13.4-20.5h-13.4v8m0 8v4.5" stroke="#EA4C14" stroke-width="2" stroke-linecap="round" stroke-linejoin="round"/></svg>