<svg width="105" height="74" fill="none" xmlns="http://www.w3.org/2000/svg"><path d="M15.889 55.998c1.242 0-1.97-.706-4.55 1.792s-1.316 5.858-.24 6.899c-1.076-.298-4.106-1.25-5.99.868-1.73 1.947-.92 4.187 0 5.377" stroke="#F5F5F5" stroke-width="2" stroke-linecap="round" stroke-linejoin="round"/><path d="M49.708 1l23.195 20.488v40.204M58.986 1L82.18 21.488v31.7M23.421 58.6h32.472m-23.58 0v6.958m14.69-6.959v6.959M23.42 35.018h32.472" stroke="#EA4C14" stroke-width="2" stroke-linecap="round" stroke-linejoin="round"/><path d="M16.463 72.13V21.874L39.657 1m0 0l23.581 20.875M39.658 1h27.06L92.23 21.875m-28.993 0v50.254m0-50.254H92.23m0 0v37.498" stroke="#EA4C14" stroke-width="2" stroke-linecap="round" stroke-linejoin="round"/><path d="M55.893 40.25V25.845L39.657 11.051 23.421 25.845v40.1h32.472V40.25z" stroke="#EA4C14" stroke-width="2" stroke-linecap="round" stroke-linejoin="round"/><path d="M1 72.129h102.442m-34.64-.597c-1.242-.996-3.229-3.824-1.242-7.17 1.987-3.345 5.795-2.987 7.45-2.39-1.034-2.986-1.365-8.96 5.588-8.96 6.954 0 7.865 5.974 7.45 8.96.207-1.592 2.484-3.584 5.588-2.389 2.578.992 2.07 4.182 1.863 5.377.828-.398 4.843-1.195 5.588 2.39.496 2.39-1.035 3.385-1.242 4.182H68.802z" stroke="#F5F5F5" stroke-width="2" stroke-linecap="round" stroke-linejoin="round"/></svg>