<svg width="169" height="42" fill="none" xmlns="http://www.w3.org/2000/svg"><path d="M27.603 14.94c1.728-3.453 3.487-6.906 5.183-10.392.32-.607.64-.863 1.344-.831 2.367.064 4.735.032 7.102 0 .64 0 .864.128.864.8a535.105 535.105 0 000 10.136c0 .704-.224.896-.895.896-4.256-.032-8.479 0-12.734-.032-.928 0-1.088.255-1.088 1.119.032 7.13 0 14.23.032 21.36 0 .832-.224 1.12-1.056 1.056-1.024-.064-2.047-.096-3.071 0-.928.063-1.088-.288-1.088-1.152.032-9.209.032-18.386.032-27.596 0-1.407 0-1.407-1.44-1.407H5.175c-.864 0-1.088-.128-.608-.959A46.731 46.731 0 006.36 4.357c.224-.48.512-.64 1.056-.64 6.366.032 12.733.032 19.1 0 .8 0 .896.288.896.991-.032 3.422 0 6.811 0 10.233h.192z" fill="#E74214"/><path d="M.76 15.549c.864-1.727 1.663-3.294 2.431-4.861.192-.416.512-.416.864-.416h15.933c.672 0 .8.224.8.864-.032 9.017-.032 18.035 0 27.052 0 .736-.288.896-.928.864-1.087-.032-2.207-.064-3.295 0-.832.063-1.056-.224-1.056-1.056.032-7.035 0-14.102.032-21.136 0-1.024-.192-1.375-1.312-1.343-4.383.064-8.798.032-13.47.032zm50.986-.429V3.513h9.186V15.12h-2.455V5.56H54.2v9.56h-2.455zM67.16 6.081c1.225 0 2.195.352 2.91 1.057.715.694 1.073 1.685 1.073 2.975v1.17h-5.722c.021.683.222 1.22.601 1.61.39.39.927.585 1.61.585.574 0 1.094-.054 1.56-.162a7.91 7.91 0 001.447-.537v1.87a5.476 5.476 0 01-1.382.471c-.477.109-1.056.163-1.74.163-.888 0-1.674-.163-2.357-.488a3.735 3.735 0 01-1.609-1.512c-.39-.672-.585-1.517-.585-2.536 0-1.04.173-1.902.52-2.585.358-.694.85-1.214 1.48-1.56.628-.347 1.36-.52 2.194-.52zm.016 1.723c-.466 0-.856.152-1.17.456-.304.303-.483.775-.537 1.414h3.398c-.01-.542-.152-.986-.423-1.333-.27-.358-.693-.537-1.268-.537zm10.71-1.723c.998 0 1.805.39 2.423 1.17.618.77.927 1.908.927 3.415 0 1.506-.32 2.655-.96 3.446-.639.78-1.457 1.17-2.454 1.17-.64 0-1.149-.113-1.528-.34a3.76 3.76 0 01-.927-.797h-.13c.087.455.13.888.13 1.3v3.577h-2.422V6.244h1.967l.341 1.154h.114a3.27 3.27 0 01.96-.927c.4-.26.92-.39 1.56-.39zm-.78 1.935c-.628 0-1.072.195-1.333.585-.249.39-.384.986-.406 1.788v.26c0 .857.125 1.518.374 1.984.26.455.726.683 1.398.683.553 0 .96-.228 1.22-.683.27-.466.406-1.133.406-2 0-1.745-.553-2.617-1.659-2.617zm13.832.552c0 .477-.151.884-.455 1.22-.293.336-.732.553-1.317.65v.065c.618.076 1.111.287 1.48.634.379.347.569.791.569 1.333 0 .51-.136.965-.407 1.366-.26.4-.677.715-1.252.943-.574.227-1.327.341-2.26.341H83.07V6.244h4.227c.693 0 1.311.076 1.853.227.553.141.986.38 1.3.716.326.336.488.796.488 1.381zm-2.454.196c0-.542-.429-.813-1.285-.813h-1.707v1.755h1.43c.51 0 .895-.07 1.155-.21.271-.153.407-.396.407-.732zm.227 3.576c0-.347-.135-.596-.406-.748-.271-.162-.678-.244-1.22-.244h-1.593v2.098h1.642c.455 0 .83-.082 1.122-.244.303-.174.455-.46.455-.862zm4.42 2.78V6.244h2.423v3.43h1.17c1.355 0 2.358.217 3.008.65.65.434.975 1.09.975 1.967 0 .857-.303 1.545-.91 2.065-.607.51-1.604.764-2.991.764h-3.674zm8.861 0V6.244h2.422v8.876h-2.422zm-5.317-1.674c.477 0 .862-.087 1.155-.26.303-.174.455-.461.455-.862 0-.65-.547-.976-1.642-.976h-1.09v2.098h1.123zm18.609-11.023a3.535 3.535 0 01-.472 1.496c-.26.423-.666.753-1.219.992-.553.238-1.295.357-2.227.357-.954 0-1.702-.114-2.244-.341-.531-.239-.91-.57-1.138-.992-.227-.422-.363-.926-.406-1.512h2.162c.054.596.206.992.455 1.187.249.195.656.293 1.219.293.466 0 .846-.103 1.138-.31.304-.216.483-.606.537-1.17h2.195zm-6.162 7.332c0 .185-.011.412-.032.683-.011.271-.027.547-.049.83-.011.281-.027.53-.049.747a22.32 22.32 0 01-.049.455l4.097-6.226h2.91v8.876h-2.341v-3.544c0-.293.011-.612.033-.96.021-.357.043-.687.065-.99.032-.315.054-.554.065-.716l-4.081 6.21h-2.91V6.244h2.341v3.511zm18.32 5.365h-2.454V5.56h-3.154V3.514h8.762V5.56h-3.154v9.56zm8.719-9.039c.997 0 1.805.39 2.422 1.17.618.77.927 1.908.927 3.415 0 1.506-.32 2.655-.959 3.446-.64.78-1.458 1.17-2.455 1.17-.639 0-1.149-.113-1.528-.34a3.78 3.78 0 01-.927-.797h-.13c.087.455.13.888.13 1.3v3.577h-2.422V6.244h1.967l.341 1.154h.114c.239-.358.558-.667.959-.927.401-.26.922-.39 1.561-.39zm-.78 1.935c-.629 0-1.073.195-1.333.585-.25.39-.385.986-.407 1.788v.26c0 .857.125 1.518.374 1.984.26.455.726.683 1.398.683.553 0 .959-.228 1.22-.683.27-.466.406-1.133.406-2 0-1.745-.553-2.617-1.658-2.617zm9.621-1.935c1.225 0 2.195.352 2.91 1.057.715.694 1.073 1.685 1.073 2.975v1.17h-5.723c.022.683.223 1.22.602 1.61.39.39.927.585 1.609.585.575 0 1.095-.054 1.561-.162.466-.12.948-.299 1.447-.537v1.87a5.48 5.48 0 01-1.382.471c-.477.109-1.057.163-1.739.163-.889 0-1.675-.163-2.358-.488a3.731 3.731 0 01-1.609-1.512c-.39-.672-.585-1.517-.585-2.536 0-1.04.173-1.902.52-2.585.357-.694.851-1.214 1.479-1.56.629-.347 1.36-.52 2.195-.52zm.016 1.723c-.466 0-.856.152-1.17.456-.304.303-.483.775-.537 1.414h3.398c-.011-.542-.152-.986-.423-1.333-.271-.358-.693-.537-1.268-.537zm9.378 7.479c-1.323 0-2.347-.363-3.073-1.09-.715-.736-1.073-1.89-1.073-3.462 0-1.084.184-1.967.553-2.65.368-.683.878-1.187 1.528-1.512.661-.325 1.42-.488 2.276-.488.607 0 1.133.06 1.577.179.455.12.851.26 1.187.423l-.716 1.87a11.612 11.612 0 00-1.073-.375 3.377 3.377 0 00-.975-.146c-1.257 0-1.886.894-1.886 2.682 0 .89.163 1.545.488 1.967.336.423.802.635 1.398.635.509 0 .959-.066 1.349-.196.39-.14.77-.33 1.138-.568v2.064a3.71 3.71 0 01-1.17.504c-.401.109-.911.163-1.528.163zm11.927-7.218h-2.91v7.055h-2.422V8.065h-2.91V6.244h8.242v1.82zM55.225 25.009v.927h-2.226v4.37h-1.12V25.01h3.346zm2.505 0c.682 0 1.18.148 1.49.445.318.292.476.695.476 1.21 0 .306-.064.596-.193.868-.129.267-.344.482-.646.645-.297.163-.702.245-1.216.245h-.483v1.885h-1.12v-5.298h1.692zm-.06.92h-.512v1.573h.371c.317 0 .567-.062.75-.185.188-.13.281-.334.281-.616 0-.515-.296-.772-.89-.772zm5.639 2.827a5.518 5.518 0 01-.475.875 1.626 1.626 0 01-.63.557c-.258.129-.595.193-1.01.193-.129 0-.27-.01-.423-.03a3.2 3.2 0 01-.423-.081v-.965c.119.05.25.084.393.104.144.02.277.03.401.03.247 0 .425-.06.534-.178a1.39 1.39 0 00.26-.446l-1.833-3.806h1.188l.986 2.293c.035.074.082.18.141.319.06.133.104.247.134.341h.037c.03-.089.072-.205.126-.349l.156-.378.92-2.226h1.157l-1.64 3.747zm2.308 1.55V25.01h4.192v5.298h-1.12v-4.363h-1.952v4.363h-1.12zm5.528 0V25.01h4.193v5.298h-1.12v-4.363h-1.952v4.363h-1.12zm8.771 0l-.385-1.26H77.6l-.385 1.26h-1.21l1.87-5.32h1.373l1.877 5.32h-1.21zm-1.038-3.435a28.58 28.58 0 00-.097-.319c-.04-.128-.079-.26-.119-.393a8.66 8.66 0 01-.096-.349c-.025.1-.06.223-.104.371-.04.144-.079.282-.119.416-.034.128-.061.22-.081.274l-.379 1.232h1.38l-.385-1.232zM56.197 39.307h-1.276l-1.922-2.686v2.686h-1.12v-5.298h1.12v2.567l1.9-2.567h1.194l-1.929 2.545 2.033 2.753zm5.33-2.657c0 .55-.092 1.03-.275 1.44a2.056 2.056 0 01-.823.95c-.371.227-.846.34-1.425.34-.574 0-1.048-.113-1.424-.34a2.093 2.093 0 01-.831-.958c-.178-.41-.268-.89-.268-1.439 0-.55.09-1.026.268-1.432.183-.406.46-.72.83-.942.377-.228.854-.342 1.433-.342.573 0 1.046.114 1.417.342.37.222.645.539.823.95.183.405.275.882.275 1.431zm-3.866 0c0 .554.107.992.32 1.314.212.316.553.474 1.023.474.48 0 .824-.158 1.032-.474.207-.322.311-.76.311-1.314 0-.559-.104-.996-.311-1.313-.208-.317-.55-.475-1.024-.475-.475 0-.819.158-1.032.475-.212.317-.319.754-.319 1.313zm7.204 2.657l-1.276-4.155h-.03l.022.445.03.638c.01.223.015.425.015.608v2.464h-1.002v-5.298h1.529l1.254 4.051h.022l1.328-4.051h1.529v5.298h-1.047v-2.508c0-.168.003-.361.008-.579.01-.218.017-.423.022-.616l.022-.445h-.03l-1.365 4.148h-1.03zm4.759 0v-5.298h4.192v5.298h-1.12v-4.363h-1.952v4.363h-1.12zm8.77 0l-.385-1.262h-1.93l-.385 1.262h-1.21l1.87-5.32h1.373l1.877 5.32h-1.21zm-1.038-3.436l-.096-.319-.12-.393a8.497 8.497 0 01-.096-.349c-.024.1-.059.223-.103.371-.04.144-.08.282-.12.416-.034.128-.061.22-.08.274l-.38 1.232h1.38l-.385-1.232zm7.26 3.436h-1.12V37.02h-2.1v2.286h-1.12v-5.298h1.12v2.078h2.1v-2.078h1.12v5.298zm1.333-5.298h1.009v2.56c0 .123-.003.262-.008.415l-.014.453-.015.378a3.25 3.25 0 01-.015.215h.022l2.449-4.021h1.343v5.298h-1.002v-2.545c0-.134.002-.28.007-.438l.015-.468c.01-.148.017-.276.022-.385.01-.114.018-.188.023-.223h-.03l-2.456 4.059h-1.35v-5.298zm10.374-1.744a1.608 1.608 0 01-.215.683 1.172 1.172 0 01-.556.453c-.253.108-.592.163-1.017.163-.435 0-.776-.052-1.024-.156-.242-.109-.415-.26-.52-.453a1.708 1.708 0 01-.185-.69h.987c.025.272.094.453.208.542.114.089.3.133.556.133a.882.882 0 00.52-.14c.138-.1.22-.277.245-.535h1.001zm-4.266 1.744h1.009v2.56c0 .123-.002.262-.007.415l-.015.453-.015.378a3.25 3.25 0 01-.015.215h.022l2.449-4.021h1.343v5.298h-1.002v-2.545c0-.134.003-.28.008-.438l.014-.468c.01-.148.018-.276.023-.385.01-.114.017-.188.022-.223h-.03l-2.456 4.059h-1.35v-5.298z" fill="#E74214"/></svg>