<svg width="127" height="35" fill="none" xmlns="http://www.w3.org/2000/svg"><path fill-rule="evenodd" clip-rule="evenodd" d="M31.641 34.568h.315V.838h-.315v33.73zM8.098.99L6.325 4.06l2.314 4.296L.588 22.33l1.771 2.995h3.547l2.487-4.126 16.05.017 1.852-3.258-1.73-2.959h-4.68L11.644.99H8.098zm.387 3.073l.745-1.255h1.354l7.094 12.187-2.832.002-6.36-10.934zm-5.72 18.252l6.983-12.14 1.353 2.357-6.27 10.841-1.413.01-.654-1.068zm8.116-5.412h12.632l.713 1.103-.67 1.302H9.451l1.429-2.405zm34.842-7.74c.936 0 1.812.173 2.627.517.814.348 1.587.87 2.314 1.572l3.936.072.02 1.515v9.225h.87v3.276h-4.825v-1.686a6.883 6.883 0 01-2.258 1.555 6.845 6.845 0 01-2.684.533c-2.337 0-4.255-.779-5.752-2.337-1.497-1.56-2.246-3.544-2.246-5.952 0-2.344.76-4.31 2.28-5.903 1.52-1.592 3.425-2.388 5.718-2.388zm45.537.067c2.53 0 4.56.82 6.097 2.461 1.534 1.642 2.302 3.832 2.302 6.571v.393H86.585c.134 1.205.616 2.131 1.446 2.777.83.646 1.948.968 3.354.968.876 0 1.661-.145 2.359-.438.698-.292 1.235-.703 1.613-1.233h3.872c-.465 1.595-1.386 2.829-2.766 3.702-1.382.875-3.104 1.312-5.17 1.312-2.617 0-4.727-.76-6.328-2.279-1.601-1.518-2.401-3.511-2.401-5.977 0-2.413.814-4.39 2.442-5.938 1.63-1.545 3.714-2.319 6.254-2.319zm26.996-.068c.949 0 1.795.127 2.542.379.274.092.741.282 1.223.485l.263.112c.569.242 1.114.482 1.338.581l.08.036.028.012h1.932v3.744h-3.197c-.276-.825-.735-1.453-1.374-1.888-.639-.435-1.425-.652-2.349-.652-.75 0-1.349.154-1.797.461-.445.31-.668.704-.668 1.186 0 .914 1.013 1.556 3.044 1.93.098.01.175.022.232.033l1.804.316c1.88.342 3.27.912 4.167 1.709.896.795 1.345 1.855 1.345 3.18 0 1.438-.556 2.622-1.664 3.555-1.11.934-2.56 1.402-4.35 1.402-.904 0-1.78-.13-2.624-.39a10.458 10.458 0 01-2.526-1.182l-.032 1.17h-2.949v-5.482h3.08c.396.96 1.003 1.69 1.818 2.192.815.5 1.814.75 2.993.75.706 0 1.275-.17 1.712-.511.434-.34.653-.785.653-1.334 0-.463-.166-.817-.497-1.064-.33-.246-1.082-.48-2.253-.7l-2.597-.433c-1.737-.308-3.023-.852-3.858-1.63-.836-.777-1.252-1.816-1.252-3.118 0-1.467.521-2.642 1.563-3.524 1.045-.882 2.435-1.325 4.17-1.325zM61.711.94V11.7c.93-.879 1.849-1.52 2.752-1.928a6.93 6.93 0 012.868-.61c1.663 0 2.896.446 3.7 1.338.803.895 1.206 2.277 1.206 4.152v7.413h.871v3.275h-4.826v-9.808c0-.852-.218-1.515-.65-1.986-.431-.47-1.041-.708-1.829-.708-.699 0-1.387.198-2.063.59-.676.395-1.35.997-2.029 1.805v6.832h.872v3.275h-4.827V4.215h-.872V.94h4.827zm18.48 0v21.126h.939v3.275h-5.897v-3.275h1.071V4.216h-1.038V.94h4.925zm30.54 8.163c.072 0 .186.004.347.016.131.01.242.015.313.015h.348v3.228h-1.132c-1.436 0-2.565.377-3.352 1.12-.795.75-1.18 1.78-1.18 3.153v5.72h1.011v2.956h-5.511v-2.955h1.013v-9.864h-1.013V9.537h4.5v1.587a5.336 5.336 0 011.516-1.304c.848-.475 1.905-.717 3.139-.717h.001zm-64.467 3.602c-1.33 0-2.416.444-3.256 1.329-.84.885-1.26 2.03-1.26 3.435 0 1.394.42 2.53 1.26 3.41.84.88 1.925 1.32 3.256 1.32 1.296 0 2.375-.445 3.238-1.336.863-.89 1.296-2.021 1.296-3.395 0-1.371-.436-2.507-1.303-3.41-.869-.902-1.946-1.353-3.231-1.353zm44.988-.133c-1.196 0-2.204.294-3.03.881-.824.588-1.37 1.409-1.637 2.461h9.185c-.32-1.096-.866-1.928-1.636-2.495-.77-.564-1.73-.848-2.882-.848zM43.1 30.945c1.078 0 1.854.8 1.854 1.839 0 1.05-.776 1.834-1.854 1.834-1.084 0-1.865-.79-1.865-1.834 0-1.03.782-1.84 1.865-1.84zm59.793 0c1.078 0 1.854.8 1.854 1.839 0 1.05-.776 1.834-1.854 1.834-1.083 0-1.864-.79-1.864-1.834 0-1.03.781-1.84 1.864-1.84zm-63.712 0c.536 0 .858.133 1.093.326l-.184.28c-.25-.189-.48-.28-.9-.28-.469 0-.785.23-.785.601 0 .372.285.53.806.652.781.183 1.15.483 1.15 1.07 0 .662-.542 1.023-1.191 1.023-.5 0-.945-.126-1.266-.36l.194-.312c.265.204.648.342 1.057.342.5 0 .843-.245.843-.657 0-.398-.245-.617-.874-.754-.71-.159-1.083-.439-1.083-.994 0-.54.485-.937 1.14-.937zm85.799 0c.537 0 .858.133 1.093.326l-.184.28c-.25-.189-.48-.28-.899-.28-.469 0-.786.23-.786.601 0 .372.286.53.807.652.781.183 1.149.483 1.149 1.07 0 .662-.542 1.023-1.19 1.023-.501 0-.945-.126-1.267-.36l.194-.312c.265.204.649.342 1.057.342.501 0 .844-.245.844-.657 0-.398-.246-.617-.874-.754-.71-.159-1.083-.439-1.083-.994 0-.54.485-.937 1.139-.937zm-3.148 0c.659 0 1.032.234 1.164.326l-.178.29c-.098-.082-.409-.285-.94-.285-.935 0-1.563.606-1.563 1.503 0 .887.608 1.507 1.563 1.507.531 0 .827-.183.95-.264l.168.285c-.132.092-.505.31-1.164.31-1.129 0-1.885-.774-1.885-1.828 0-1.07.777-1.844 1.885-1.844zm-53.247 0c.536 0 .858.133 1.093.326l-.184.28c-.25-.189-.48-.28-.9-.28-.469 0-.786.23-.786.601 0 .372.286.53.807.652.782.183 1.15.483 1.15 1.07 0 .662-.542 1.023-1.19 1.023-.502 0-.946-.126-1.268-.36l.194-.312c.266.204.65.342 1.058.342.501 0 .843-.245.843-.657 0-.398-.246-.617-.874-.754-.71-.159-1.083-.439-1.083-.994 0-.54.486-.937 1.14-.937zm38.959 0c.659 0 1.032.234 1.165.326l-.169.29c-.103-.086-.424-.285-.961-.285-.863 0-1.568.631-1.568 1.513 0 .881.705 1.497 1.538 1.497.429 0 .761-.106.97-.209v-1.135h.368v1.314c-.23.133-.649.362-1.354.362-1.067 0-1.89-.775-1.89-1.829 0-1.055.823-1.844 1.901-1.844zm-57.98.045v2.156c0 .672.425 1.125 1.13 1.125.69 0 1.098-.453 1.098-1.125V30.99h.357v2.13c0 .963-.582 1.497-1.465 1.497-.905 0-1.497-.54-1.497-1.497v-2.13h.378zm10.665-.045c1.078 0 1.854.8 1.854 1.839 0 1.05-.776 1.834-1.854 1.834-1.083 0-1.864-.79-1.864-1.834 0-1.03.781-1.84 1.864-1.84zm24.641 0c1.078 0 1.854.8 1.854 1.839 0 1.05-.776 1.834-1.854 1.834-1.083 0-1.864-.79-1.864-1.834 0-1.03.781-1.84 1.864-1.84zm27.912 0c.536 0 .858.133 1.093.326l-.184.28c-.25-.189-.48-.28-.899-.28-.469 0-.786.23-.786.601 0 .372.285.53.807.652.781.183 1.149.483 1.149 1.07 0 .662-.542 1.023-1.19 1.023-.501 0-.945-.126-1.267-.36l.194-.312c.265.204.649.342 1.057.342.501 0 .843-.245.843-.657 0-.398-.245-.617-.873-.754-.71-.159-1.083-.439-1.083-.994 0-.54.485-.937 1.139-.937zm-24.671.01l2.406 2.95v-2.914h.363v3.616h-.225l-2.412-2.938v2.903h-.362v-3.617h.23zm-24.646 0l2.405 2.95v-2.914h.363v3.616h-.224l-2.412-2.938v2.903h-.363v-3.617h.23zm10.26.035c.905 0 1.282.393 1.282.959 0 .356-.225.647-.526.79.388.126.634.447.634.814 0 .637-.45 1.02-1.262 1.02H72.56V30.99h1.165zm6.087 0l1.104 1.814 1.113-1.814h.419l-1.364 2.17v1.412h-.362v-1.421l-1.35-2.16h.44zm-33.344 0v3.256h1.956v.326h-2.319V30.99h.363zm10.742 0v3.582h-.363V30.99h.363zm21.415 0v.326H76.67v1.274h1.71v.326h-1.71v1.33h1.956v.326h-2.319V30.99h2.32zm19.94 0v3.256h1.957v.326h-2.319V30.99h.363zm-42.67 0v.326H54.67v3.256h-.367v-3.256H53.05v-.326h2.846zm54.532 0v3.582h-.363V30.99h.363zm7.04 0v.326h-1.225v3.256h-.368v-3.256h-1.252v-.326h2.845zm1.319 0v3.582h-.362V30.99h.362zm-25.28 0c1.124 0 1.875.714 1.875 1.789s-.751 1.792-1.875 1.792h-1.215v-3.58h1.215zm-50.406.285c-.853 0-1.497.663-1.497 1.509 0 .87.644 1.503 1.497 1.503.843 0 1.486-.627 1.486-1.503 0-.851-.643-1.508-1.486-1.508zm17.13 0c-.854 0-1.497.663-1.497 1.509 0 .87.643 1.503 1.496 1.503.843 0 1.487-.627 1.487-1.503 0-.851-.644-1.508-1.487-1.508zm24.64 0c-.853 0-1.496.663-1.496 1.509 0 .87.643 1.503 1.496 1.503.843 0 1.486-.627 1.486-1.503 0-.851-.642-1.508-1.486-1.508zm18.023 0c-.853 0-1.496.663-1.496 1.509 0 .87.643 1.503 1.496 1.503.844 0 1.487-.627 1.487-1.503 0-.851-.644-1.508-1.487-1.508zm-9.371.041h-.869v2.93h.87c.898 0 1.486-.586 1.486-1.462 0-.877-.588-1.467-1.487-1.467zm-19.644 1.6h-.955v1.33h.915c.556 0 .904-.265.904-.713 0-.316-.256-.617-.864-.617zm-.163-1.6h-.792v1.274h.955c.465 0 .752-.234.752-.6 0-.409-.281-.674-.915-.674z" fill="#E74214"/></svg>