<svg width="60" height="62" fill="none" xmlns="http://www.w3.org/2000/svg"><path d="M53.63 50.989c-6.32 9.078-20.828 12.985-32.492 8.935C8.411 55.499-.092 43.232.425 30.017.942 16.371 10.25 4.592 23.12 1.288c13.187-3.39 25.885 2.126 32.32 11.176-13.1-11.176-26.66-12.64-39.818-.201-8.532 8.072-9.969 20.857-4.51 31.228 4.165 7.9 10.773 12.698 19.507 14.22 8.618 1.466 16.318-1.034 23.011-6.722z" fill="#E74214"/><path d="M21.169 50.644c11.635 4.712 23.47-1.293 27.78-11.233 5.631-12.899-2.672-27.723-16.605-29.677-3.792-.545-7.412.087-10.974 1.264-.087-.086-.144-.172-.23-.23C35.475.514 56.189 8.959 59.263 26.34c2.384 13.588-6.033 26.085-19.564 28.7-6.752 1.321-13.072-.058-18.703-4.137l.173-.259z" fill="#E74214"/><path d="M33.752 27.058v5.602c0 .431.057.948-.603.92-.575-.03-.632-.46-.632-.92v-8.33c0-.259-.087-.718.23-.718.947-.058 1.924.028 2.872-.058 1.322-.115 1.523.862 1.896 1.753.46 1.063.92 2.097 1.494 3.447.604-1.494 1.15-2.73 1.61-4.022.315-.862.717-1.235 1.723-1.207 2.93.115 2.93.03 2.93 3.046 0 1.953-.029 3.907.029 5.89.029.861-.259 1.148-1.15 1.177-2.786.057-2.786.086-2.786-2.643v-3.878c-.086-.03-.144-.058-.23-.087-.488 1.322-.977 2.672-1.465 3.994-.201.546-.345 1.091-.603 1.609-.316.574-.661 1.063-1.494 1.034-.804-.029-1.178-.374-1.437-1.092-.66-1.867-1.407-3.677-2.126-5.545-.086-.028-.172 0-.258.03zm-3.162 1.408c0 1.38-.028 2.787 0 4.166.03.747-.287.977-1.005 1.005-3.103.144-3.103.173-3.103-2.959 0-2.097.03-4.194 0-6.32 0-.776.201-1.092 1.035-1.12 3.074-.087 3.074-.144 3.074 2.901v2.327zm-9.221-17.467c-.201.258-.604.373-.718.172-.173-.373.373-.2.488-.402.086.086.144.172.23.23zm-.375 39.904c-.172-.057-.316-.144-.488-.201.201-.201.43-.144.632-.058a1.162 1.162 0 01-.144.259zm1.207-23.155c1.494.546 2.614 1.293 2.586 2.988-.029 1.752-.948 2.815-2.7 2.844-2.5.057-4.97 0-7.47.029-.776 0-1.12-.23-1.092-1.063.029-2.73.057-5.459 0-8.188-.029-.92.345-1.12 1.178-1.092 2.356.058 4.683.058 7.038 0 1.178-.028 2.155.23 2.414 1.494.258 1.264-.173 2.27-1.465 2.758-.144.029-.259.115-.489.23zm-4.683 2.873c.288.776-.69 2.298 1.35 2.155 1.322-.087 2.098-.862 2.098-2.299.029-1.551-.46-1.925-2.011-2.068-1.982-.201-1.322 1.178-1.437 2.212zm.03-4.798c-.058.805-.202 1.638 1.206 1.523 1.149-.086 1.838-.402 1.838-1.638 0-1.206-.718-1.551-1.867-1.609-1.436-.057-1.207.834-1.178 1.724zm-2.23 9.936h.795l1.897 4.361h-1.084l-.376-.924h-1.694l-.363.924h-1.06l1.885-4.361zm.37 1.269l-.53 1.355h1.066l-.536-1.355zm5.613-.136a.936.936 0 00-.351-.265 1.136 1.136 0 00-.474-.092c-.181 0-.35.035-.506.105-.152.07-.285.168-.4.295-.11.124-.2.271-.265.444a1.67 1.67 0 00-.092.56c0 .206.03.395.092.567.066.169.154.316.265.444a1.15 1.15 0 00.875.394c.197 0 .371-.041.523-.123.152-.082.277-.197.376-.345l.8.597c-.184.259-.418.45-.701.573a2.173 2.173 0 01-.875.185c-.341 0-.655-.053-.943-.16a2.181 2.181 0 01-.745-.456 2.15 2.15 0 01-.493-.727 2.501 2.501 0 01-.172-.948c0-.35.057-.666.172-.95a2.112 2.112 0 011.238-1.182c.288-.107.602-.16.943-.16.123 0 .25.012.382.037a1.87 1.87 0 01.77.302c.119.082.226.182.32.302l-.74.603zm2.8-1.133h.795l1.897 4.361h-1.084l-.376-.924H23.64l-.363.924h-1.06l1.885-4.361zm.37 1.269l-.53 1.355h1.066l-.536-1.355zm2.76-1.27h1.442c.35 0 .68.04.992.118.316.078.591.205.825.382.234.172.42.398.555.677.14.28.21.618.21 1.017a2.012 2.012 0 01-.74 1.614c-.226.18-.487.318-.782.412a3.037 3.037 0 01-.93.142h-1.571v-4.36zm.962 3.475h.499c.221 0 .427-.022.616-.068a1.35 1.35 0 00.498-.221c.14-.107.249-.245.327-.413.082-.173.123-.382.123-.628a1.176 1.176 0 00-.443-.95 1.369 1.369 0 00-.48-.227 2.011 2.011 0 00-.574-.08h-.566v2.587zm3.75-3.474h2.963v.887h-2.002v.813h1.89v.887h-1.89v.887h2.113v.887h-3.074v-4.36zm3.843 0h1.454l1.004 2.846h.012l1.01-2.846h1.448v4.361h-.961v-3.345h-.012l-1.146 3.345h-.733l-1.103-3.345h-.012v3.345h-.961v-4.36zm6.889 2.5l-1.639-2.5h1.195l.924 1.632.98-1.632h1.14l-1.64 2.5v1.861h-.96v-1.86z" fill="#E74214"/></svg>