<svg width="145" height="49" fill="none" xmlns="http://www.w3.org/2000/svg"><path d="M29.801 16.745c-.238-.524-.214-1.073-.214-1.62 0-.406.166-.477.524-.406 1.263.239 2.55.31 3.837.215 3.623-.286 6.697-1.74 9.224-4.362.31-.333.476-.429.762.024.62.953 1.287 1.883 1.764 2.931-.167.263-.43.287-.691.334-4.79.954-9.605 1.883-14.396 2.836-.286.048-.548.143-.81.048zm-14.564 5.434c-.524 1-1.263 1.859-2.121 2.598-.286.262-.405.19-.524-.167-1.835-4.79-5.22-7.841-10.177-9.152-.334-.095-.43-.19-.262-.5.19-.334.357-.692.524-1.05.834.454 1.597 1.026 2.383 1.526 3.194 2.097 6.412 4.17 9.605 6.244.215.143.477.239.572.5zm14.133 1.716c.405 2.216-.69 4.433-2.717 5.41a5.062 5.062 0 01-6.006-1.168.983.983 0 01-.166-.262c.047-.31.285-.167.428-.143.43.071.858.166 1.311.214.835.12 1.621 0 2.408-.238a.339.339 0 01.142-.048c.573-.047 1.025-.357 1.478-.62 1.12-.595 1.978-1.453 2.526-2.621.143-.239.143-.644.596-.524z" fill="#E74214"/><path d="M40.216 6.568c.977.739 1.763 1.644 2.574 2.55.214.238.071.357-.096.524-1.477 1.502-3.146 2.694-5.148 3.36-.357-.095-.143-.333-.095-.5.215-.596.477-1.191.715-1.763.5-1.24.977-2.479 1.502-3.695.095-.262.143-.62.548-.476zM.557 20.153c.166-1.263.548-2.455.953-3.646.048-.167.12-.263.334-.215 2.05.524 3.956 1.382 5.577 2.765-.072.476-.477.429-.763.476-1.31.191-2.646.382-3.956.549-.43.047-.882.119-1.311.19-.286.048-.572.096-.834-.119zm31.722 27.289c-1.192.477-2.431.787-3.67 1.001-.215.048-.334.024-.382-.214-.572-2.074-.739-4.147-.358-6.268.263-.096.406.095.525.262 1.263 1.573 2.502 3.17 3.742 4.766.095.143.214.263.143.453zM25.605 33.31c1.573-.215 3.075-.096 4.457.786.286.19.334.333.072.62a13.857 13.857 0 00-3.146 6.03c0 .023-.048.047-.048.094-.286-.214-.334-.524-.357-.858-.191-1.906-.405-3.813-.572-5.72-.048-.357-.12-.69-.405-.953zM8.612 31.998c.286.19.572.381.834.572.238.358.214.786.262 1.192.262 2.645.548 5.267.81 7.912.024.286.12.572-.166.787-.286.095-.406-.096-.549-.286-.238-.334-.452-.715-.667-1.073-.143-.31-.357-.572-.453-.905-.071-.31-.214-.572-.31-.882-.071-.262-.166-.5-.238-.763a13.48 13.48 0 01-.19-.953c-.024-.19-.072-.381-.096-.596-.024-.143-.024-.31-.024-.453.024-.596-.024-1.191 0-1.787.024-.334.096-.644.143-.977.143-.406.143-.835.31-1.24.095-.167.12-.429.334-.548zm21.855-13.775a1.18 1.18 0 01-.31-.62c-.12-.334.143-.358.357-.405.525-.143 1.049-.191 1.573-.31 4.457-.906 8.938-1.764 13.395-2.646.19-.047.38-.119.572.024.166.239.333.453.333.739-.19.334-.548.31-.834.381-4.719.906-9.414 1.883-14.11 2.765-.357.072-.667.262-.976.072z" fill="#E74214"/><path d="M46.007 14.266c-2.264.548-4.576.93-6.887 1.382-2.408.5-4.839.954-7.246 1.43-.476.096-.977.191-1.454.262-.166.024-.262.072-.286.239-.19-.262-.286-.548-.333-.882a198.59 198.59 0 013.646-.763c3.67-.739 7.365-1.454 11.059-2.192.405-.072.786-.191 1.192-.263.119.287.286.501.31.787zm-15.54 3.956c2.312-.476 4.623-.93 6.935-1.406l8.652-1.716c.095-.024.19-.071.31-.095.167.238.286.477.333.739-.166.214-.405.214-.62.262-4.933.953-9.843 1.954-14.776 2.907a1 1 0 01-.381.024c-.191-.19-.405-.405-.453-.715zm16.636-1.167c.167.262.239.548.286.858-.762.286-1.597.38-2.407.524-3.908.763-7.793 1.573-11.702 2.312-.262.047-.5.167-.787.167a3.898 3.898 0 01-.667-.74c.143-.285.405-.31.667-.357 4.6-.905 9.2-1.811 13.824-2.717.262-.071.524-.167.786-.047z" fill="#E74214"/><path d="M32.494 20.916c.143-.31.453-.262.691-.31a949.124 949.124 0 0111.321-2.24c.953-.167 1.883-.5 2.86-.477.072.214.167.405.143.643-.119.215-.334.263-.548.286-4.552.882-9.104 1.812-13.68 2.694a.49.49 0 01-.262 0c-.191-.143-.358-.358-.525-.596zm-6.84-13.395c-.453.239-.93.453-1.383.692-2.097-1.407-4.218-2.765-6.34-4.147-.19-.12-.404-.239-.333-.525.072-.047.143-.047.238-.047.239.047.5.047.74.023.238 0 .452 0 .69.048.31.095.668.12.978.215.333.119.667.214.977.333.262.12.524.215.786.334.286.167.572.286.858.453.262.19.548.31.787.524.286.215.62.381.858.667.286.31.572.596.882.882.143.143.405.262.262.548zm8.888-4.6c.31.096.62.215.882.43-1.334 3.17-2.55 6.363-3.885 9.533-.119.286-.19.62-.429.858-.333.047-.643-.048-.977-.12-.31-.261-.047-.524.048-.762l2.931-7.293c.31-.739.596-1.502.93-2.217.095-.214.119-.548.5-.429zm-7.96 42.067c.095 1.096.238 2.192.572 3.217.12.334.048.453-.31.453-.262 0-.524.048-.786.071-.215-1.024-.262-2.073-.382-3.122-.238-2.288-.476-4.6-.715-6.888-.143-1.501-.31-3.003-.476-4.504-.024-.262-.048-.548.143-.763.214-.024.429-.071.643-.095.405.596.286 1.31.358 1.954.238 2.36.5 4.72.738 7.103.12.834.191 1.716.215 2.574zm20.522-27.933c-1.359.286-2.74.572-4.1.858-3.36.667-6.72 1.334-10.105 2.002-.357.071-.739.095-1.072.286a1.63 1.63 0 01-.405-.5c-.024-.335.214-.358.429-.43.405-.119.834-.19 1.263-.262 4.314-.882 8.651-1.692 12.965-2.574.262-.048.548-.167.834 0 .12.167.215.381.19.62z" fill="#E74214"/><path d="M24.677 33.428c.024 1.43.262 2.86.405 4.266.095.835.143 1.645.238 2.48.143 1.286.286 2.573.405 3.836.12 1.216.239 2.431.334 3.647.024.333.262.69.024 1.025-.215 0-.43.023-.644.023-.238-.357-.214-.786-.262-1.191-.31-3.075-.62-6.125-.953-9.2-.167-1.573-.238-3.17-.548-4.719a4.88 4.88 0 011-.167zm3.765 6.316a5.04 5.04 0 01.524-1.287c.381-.143.5.167.667.381a344.2 344.2 0 013.623 4.624c.548.715 1.144 1.406 1.668 2.145.12.167.31.31.239.572-.358.167-.644.477-1.073.524-.763-.739-1.359-1.644-2.026-2.479-1.049-1.334-2.097-2.645-3.146-3.98-.119-.214-.286-.357-.476-.5zm18.47-23.357c-1.906.382-3.79.763-5.696 1.12-3.003.596-6.03 1.192-9.033 1.788-.262.048-.62 0-.786.357a2.06 2.06 0 01-.5-.69c.667-.382 1.43-.358 2.144-.501 2.789-.572 5.554-1.12 8.342-1.669a409.12 409.12 0 015.267-1.024c.167.19.215.405.262.62zM30.563 35.883c.166-.239.286-.477.524-.644.238-.119.405 0 .548.19 2.145 2.742 4.314 5.482 6.435 8.223.143.167.334.334.238.62-.238.215-.453.429-.762.5-.715-.595-1.216-1.406-1.788-2.12-1.644-2.074-3.265-4.172-4.91-6.245-.119-.167-.262-.31-.285-.524zm9.985 6.53a3.781 3.781 0 01-.858.763c-.715-.787-1.334-1.668-2.002-2.479-1.263-1.597-2.526-3.217-3.789-4.814-.167-.215-.334-.358-.596-.405-.119-.024-.262-.024-.262-.215.62 0 1.263-.024 1.883-.024.262-.047.334.143.453.286 1.644 2.145 3.36 4.243 5.005 6.388.119.143.31.286.166.5zm-7.507-20.878c.644-.381 1.382-.381 2.097-.524 3.528-.715 7.055-1.406 10.582-2.097.596-.12 1.216-.191 1.812-.382.024.262.238.477.19.763-.166.167-.405.214-.643.262-4.076.763-8.151 1.645-12.25 2.407-.43.072-.835.239-1.264.215-.166-.215-.333-.43-.524-.644zM15.786 34.31l1.692.072c.262.095.262.31.286.524.286 2.86.596 5.696.882 8.556.119 1.192.238 2.383.381 3.551.024.239.072.453.024.691-.048.215-.12.382-.405.286a1.884 1.884 0 01-.81-.238c.07-.214.142-.429.119-.667-.43-4.004-.81-8.008-1.24-11.988-.024-.286-.047-.549-.429-.549a.967.967 0 01-.453-.095c-.071-.024-.071-.071-.047-.143zm32.057-14.371c.12.238.12.5.12.738-.215.263-.525.263-.835.334-3.646.739-7.293 1.43-10.915 2.145a11.35 11.35 0 00-1.55.381c-.19-.238-.357-.476-.548-.715.024-.429.382-.357.644-.429 2.216-.453 4.457-.905 6.673-1.334 1.883-.382 3.79-.74 5.672-1.12.239-.024.477-.12.74 0z" fill="#E74214"/><path d="M47.842 19.938c-1.358.286-2.693.572-4.051.858-3.099.62-6.221 1.216-9.343 1.836-.143.023-.262.071-.334.214-.167-.214-.357-.429-.524-.667.62-.405 1.358-.358 2.05-.5 2.764-.573 5.553-1.12 8.341-1.67 1.24-.237 2.503-.476 3.766-.714.047.214.119.429.095.643zM7.183 7.831c.19-.238.405-.453.667-.62 3.36 2.24 6.768 4.41 10.129 6.626.215.143.477.262.572.548-.12.215-.214.43-.334.644-.214.143-.381-.048-.524-.143-2.074-1.311-4.123-2.693-6.197-4.028a228.1 228.1 0 01-3.98-2.598c-.167-.12-.381-.167-.333-.429zm23.38 28.052c.787.834 1.43 1.764 2.121 2.645 1.573 1.979 3.146 3.98 4.72 5.959a.65.65 0 01.142.286c-.214.214-.453.405-.763.524-.667-.548-1.12-1.287-1.644-1.954-1.55-1.979-3.122-3.933-4.648-5.935-.166-.214-.405-.405-.548-.643.191-.31.358-.644.62-.882zm.548-22.141c.215-.977.715-1.859 1.073-2.765a353.432 353.432 0 012.812-6.959c.096-.238.167-.524.43-.643.285.095.571.214.81.429-1.311 3.122-2.55 6.268-3.814 9.39-.095.238-.119.596-.5.596-.215 0-.405.024-.62-.048h-.19zm4.074 32.413c-.739-.953-1.454-1.907-2.192-2.86-1.12-1.43-2.265-2.86-3.385-4.29-.166-.214-.31-.477-.643-.524.119-.358.286-.668.524-.977.31-.143.405.119.548.286 1.335 1.62 2.598 3.312 3.909 4.957.62.786 1.24 1.55 1.835 2.36.143.166.405.333.262.643-.262.143-.524.357-.858.405zM15.238 22.179a1069.106 1069.106 0 01-5.41-3.504l-6.721-4.361c-.167-.12-.334-.215-.43-.405.072-.239.168-.453.334-.62 2.67 1.811 5.41 3.527 8.104 5.291 1.406.93 2.836 1.835 4.266 2.765a.715.715 0 01.19.19c-.047.263-.19.453-.333.644zm8.437 11.44c.43.262.31.715.334 1.072.19 1.645.357 3.313.524 4.957.12 1.192.215 2.384.334 3.6.12 1.215.262 2.43.405 3.622.072.62.095 1.24.143 1.859-.214 0-.429 0-.643.024-.334-.667-.286-1.43-.358-2.145l-.715-6.96c-.19-1.835-.381-3.694-.572-5.529-.024-.119 0-.238.024-.381.167-.12.357-.096.524-.12zM5.824 9.26c.095-.19.238-.333.429-.452.715.215 1.263.715 1.883 1.12 2.908 1.907 5.863 3.766 8.747 5.696.262.191.548.31.834.477-.048.31-.19.572-.334.858-.238.072-.405-.095-.572-.214-2.836-1.86-5.696-3.695-8.508-5.554-.715-.476-1.454-.905-2.145-1.406-.215-.119-.477-.214-.334-.524zm28.838 14.301c.048-.286.286-.262.5-.31 2.503-.5 5.006-1 7.484-1.501 1.764-.358 3.528-.715 5.315-1.073-.071.262.143.5.095.74-.143.166-.357.214-.572.261-4.075.81-8.174 1.597-12.25 2.431h-.167a1.566 1.566 0 01-.405-.548z" fill="#E74214"/><path d="M23.15 33.738c.31.667.238 1.382.334 2.074.214 1.692.38 3.384.548 5.052.119 1.216.214 2.431.333 3.647.12 1.191.286 2.383.405 3.575.024.214.024.429.024.643-.262 0-.524.12-.762 0-.286-2.073-.453-4.17-.668-6.268a819.672 819.672 0 01-.81-7.984c-.024-.238-.048-.453.12-.667.118-.096.309-.072.476-.072zM10.424 22.536c.286.262.405.596.548.93-.19.262-.476.286-.762.31-3.099.428-6.173.881-9.272 1.31-.238.024-.5.072-.715-.119-.071-.286-.047-.572-.023-.858.143-.214.38-.238.62-.262 3.026-.429 6.077-.858 9.127-1.287.143-.024.31 0 .477-.024zm22.617 12.727c.978.048 1.287.93 1.764 1.526 1.55 1.906 3.05 3.86 4.552 5.791.143.167.31.358.334.596-.167.214-.405.381-.644.524-.214-.047-.333-.19-.453-.357-1.954-2.503-3.932-4.982-5.863-7.484-.119-.167-.357-.31-.214-.596h.524zM15.548 21.535c-.834-.31-1.525-.905-2.264-1.382-3.265-2.074-6.506-4.219-9.748-6.34-.214-.143-.524-.214-.548-.548.048-.215.167-.381.31-.548 3.694 2.455 7.412 4.814 11.083 7.245.5.334 1.072.572 1.477 1.049-.095.167-.19.357-.31.524zM34.544 2.922c-.5.238-.5.762-.667 1.144-1.264 3.026-2.455 6.077-3.695 9.128-.047.143-.142.262-.047.405-.525-.095-.453-.62-.644-.93-.095-.19 0-.38.072-.548 1.192-2.979 2.43-5.958 3.622-8.961.096-.262.12-.667.62-.572.262.071.525.167.739.334z" fill="#E74214"/><path d="M32.517 35.263c.43.835 1.097 1.478 1.645 2.217 1.62 2.097 3.265 4.17 4.886 6.244a2.838 2.838 0 01-.739.548c-.596-1.024-1.406-1.859-2.097-2.788-1.216-1.597-2.455-3.146-3.695-4.72-.333-.428-.69-.857-1-1.286-.12-.143-.239-.215-.406-.215.453-.238.93.024 1.406 0zM20.29 34.19c.095 0 .19-.023.286-.023.477-.143.572.19.596.524.095 1.096.238 2.193.334 3.29.262 2.645.548 5.314.81 7.96.071.715.167 1.453.214 2.168.024.239.096.596-.357.5-.286 0-.596.025-.858-.095.286-.262.214-.62.19-.953-.19-1.883-.405-3.79-.572-5.672-.238-2.407-.524-4.815-.715-7.222-.023-.143-.071-.333.072-.476zm-1.74-19.829c-3.288-2.145-6.577-4.266-9.842-6.434-.31-.215-.74-.31-.858-.74.143-.19.31-.333.524-.452.834.381 1.55.953 2.312 1.43l8.15 5.29c.072.049.12.096.168.144-.167.286-.31.524-.453.762zM7.183 7.831c.477.477 1.096.787 1.644 1.144 3.051 2.002 6.126 3.98 9.176 5.982.048.048.143.048.19.072-.094.214-.214.429-.309.643-.238.143-.405-.047-.572-.167-2.336-1.525-4.695-3.05-7.03-4.576-1.073-.69-2.17-1.382-3.218-2.097-.19-.143-.477-.238-.334-.572.143-.19.286-.334.453-.429zM.247 24.967c1.287-.023 2.574-.31 3.837-.476 1.382-.167 2.765-.382 4.147-.596.906-.143 1.835-.19 2.717-.43.167.192.262.406.31.644-.024.382-.358.405-.62.453-1.787.262-3.599.524-5.41.763-1.382.19-2.74.405-4.123.572a1.391 1.391 0 01-.31.048c-.524.047-.62-.048-.62-.573 0-.119-.047-.285.072-.405z" fill="#E74214"/><path d="M22.173 48.634c.262-.024.262-.215.238-.406-.167-1.501-.357-3.026-.5-4.528-.12-1.168-.215-2.312-.358-3.48-.119-1.263-.286-2.526-.405-3.79-.047-.571-.095-1.12-.119-1.691-.024-.31-.048-.572-.453-.572.238-.12.5-.096.763-.096.477-.071.429.358.477.596.095.787.166 1.55.238 2.336.262 2.693.548 5.386.834 8.08.12 1.048.214 2.097.31 3.145.024.191.024.358-.12.5-.31 0-.619.049-.905-.094zM10.425 22.536c-.262.334-.667.239-.977.286a330.23 330.23 0 01-6.769.977c-.81.12-1.62.215-2.407.334-.12-.31-.048-.643-.048-.953.143-.143.31-.167.477-.19 3.05-.478 6.125-.859 9.2-1.312.262.215.357.548.524.858zm25.619 23.19c-.452-.81-1.096-1.478-1.644-2.193a366.315 366.315 0 00-3.742-4.766c-.357-.453-.596-1.001-1.168-1.264.096-.285.286-.524.453-.738.644.31.93.953 1.335 1.453 1.549 1.931 3.074 3.885 4.6 5.84.31.405.667.762.905 1.239-.214.167-.453.334-.739.429zm-.143-20.306a4.432 4.432 0 01-.262-.453c-.119-.357.167-.381.382-.453.405-.143.834-.166 1.263-.262 3.337-.667 6.673-1.334 10.01-1.978.262-.048.548-.19.81 0-.024.334.239.667-.071.977a3.162 3.162 0 00-.954.096c-3.432.715-6.888 1.358-10.343 2.05-.286.07-.572.19-.834.023zM9.566 5.829a2.29 2.29 0 01.858-.548c.119.214.286.357.476.5 2.98 1.955 5.959 3.861 8.938 5.816.143.095.286.143.334.333-.143.19-.263.358-.406.548-.286.191-.476-.023-.667-.143-1.382-.905-2.765-1.787-4.123-2.669-1.62-1.049-3.218-2.097-4.838-3.146-.263-.214-.596-.31-.572-.691zm9.413 7.794c-.691-.167-1.216-.668-1.788-1.025a636.747 636.747 0 01-8.413-5.506c-.143-.095-.333-.143-.405-.333.167-.215.405-.382.644-.525 2.693 1.812 5.434 3.552 8.127 5.315.62.405 1.239.834 1.883 1.24.119.071.238.143.285.31-.119.166-.214.357-.333.524zm-2.025 4.504a1.17 1.17 0 01-.19.548c-.239.143-.406-.047-.573-.143-1.763-1.096-3.48-2.24-5.22-3.36a496.66 496.66 0 01-5.862-3.838c-.215-.143-.5-.214-.477-.572.143-.19.286-.357.43-.548 2.883 1.955 5.838 3.814 8.77 5.72.93.596 1.835 1.24 2.788 1.812.143.071.286.19.334.381zm11.487 21.617c.286-.143.382.12.5.262a675.765 675.765 0 015.101 6.483c.048.047.048.143.072.19-.286.191-.62.358-.978.43-.333-.167-.476-.501-.715-.787-1.406-1.764-2.788-3.575-4.218-5.339a.46.46 0 01-.095-.19c.071-.358.19-.715.333-1.049z" fill="#E74214"/><path d="M9.877 21.655c-.215.333-.572.262-.858.286-2.503.38-5.029.715-7.555 1.072-.405.048-.81.072-1.216.12-.071-.025-.095-.072-.047-.144 0-.405-.024-.786.095-1.191.262.166.524.166.81.119 2.503-.358 5.03-.691 7.532-1.073.19-.024.38-.047.595-.024.286.286.477.549.644.835zm26.025 3.765c1.716-.334 3.432-.667 5.148-1.025 2.193-.429 4.362-.858 6.555-1.287.19-.047.31-.071.357.167.19.31.214.596-.048.858-.31-.095-.62-.071-.953 0-3.36.691-6.721 1.335-10.081 2.002-.167.024-.358.072-.525.048-.167-.262-.31-.525-.453-.763zm-17.28 22.57c.477-.143.263-.548.239-.81-.12-1.335-.262-2.67-.405-4.004-.167-1.55-.358-3.099-.525-4.648a183.75 183.75 0 01-.333-3.599c-.024-.19 0-.381-.12-.572a1.48 1.48 0 01.787 0c.238.382.167.834.215 1.24.333 3.336.69 6.65 1.024 9.986.072.715.167 1.454.215 2.169 0 .166.047.357-.072.524-.333-.072-.69-.19-1.024-.286zm1.669-13.8l.43 4.22c.118 1.191.285 2.383.404 3.574.12 1.144.239 2.288.334 3.432.095.906.095 1.812.262 2.694.072.452-.119.429-.405.452-.048 0-.12-.023-.167-.023-.405-.596-.286-1.311-.357-1.979-.31-2.693-.549-5.386-.835-8.08-.119-1.143-.214-2.31-.357-3.455-.024-.238-.048-.5.024-.739.214-.119.429-.095.667-.095zm16.826-6.53a1.615 1.615 0 01-.31-.643c-.119-.262.048-.357.239-.429.167-.071.334-.095.524-.143 3.122-.596 6.245-1.24 9.367-1.835.31-.048.643-.19.882.143.095.381.095.739-.239 1.025a2.364 2.364 0 00-1 .024c-3.075.62-6.15 1.215-9.224 1.859h-.239z" fill="#E74214"/><path d="M19.623 34.262c.287.382.143.858.215 1.287.214 1.55.31 3.122.453 4.695.19 1.907.429 3.837.62 5.744.095.834.142 1.692.238 2.526-.215 0-.453.072-.644-.095-.381-.667-.286-1.43-.357-2.145-.286-2.645-.548-5.29-.81-7.913-.12-1.143-.215-2.311-.358-3.455-.024-.215-.024-.43.143-.596.143-.024.31-.024.5-.048zM9.255 20.868c-.524.31-1.12.262-1.692.334-1.978.31-3.98.572-5.958.858-.286.047-.548.071-.834.119-.262.048-.453-.048-.453-.358 0-.286-.024-.572.12-.858 1.358-.024 2.692-.333 4.027-.5 1.31-.167 2.598-.405 3.909-.524.38.238.643.572.881.929zm38.491 3.908c-.382-.31-.763-.023-1.12.024a553.657 553.657 0 00-9.057 1.788c-.262.047-.691-.048-.763.429a14.36 14.36 0 00-.453-.834c.692-.382 1.502-.382 2.24-.549a552.86 552.86 0 018.58-1.692c.168-.024.597-.429.668.167.143.262.239.5-.095.667zM5.825 9.261c0 .143.071.215.19.286 3.79 2.455 7.58 4.934 11.369 7.389-.072.19-.143.357-.215.548-.214.143-.381-.024-.524-.143-1.978-1.24-3.933-2.55-5.887-3.814a338.896 338.896 0 01-4.886-3.193c-.214-.143-.524-.215-.476-.572.119-.167.286-.334.429-.5z" fill="#E74214"/><path d="M5.372 9.786c.286.429.763.62 1.192.882 3.027 1.978 6.054 3.956 9.104 5.91.5.31.954.668 1.502.906l-.215.643c-3.575-2.311-7.15-4.647-10.725-6.983-.405-.262-.953-.429-1.168-.953a.884.884 0 01.31-.405zm13.942 3.312c-1.311-.858-2.622-1.692-3.933-2.55l-5.863-3.79c-.19-.118-.477-.19-.5-.5.143-.19.333-.31.548-.405.143.286.429.429.667.596 3.003 1.954 6.006 3.909 9.033 5.863.143.095.286.214.477.19a3.101 3.101 0 01-.43.596zM40.55 42.413c-.31-.667-.834-1.168-1.287-1.74-1.358-1.787-2.765-3.551-4.147-5.315-.048-.047-.12-.071-.167-.119.31-.12.644-.095.977-.095.286-.12.43.024.572.238 1.526 1.978 3.075 3.98 4.648 5.91.095.12.214.215.143.382-.19.286-.43.548-.739.739zM6.753 8.236c0 .215.143.31.31.405a2701.46 2701.46 0 0110.677 6.984c.048.024.096.024.143.047 0 .191-.238.239-.214.43-.286.119-.477-.072-.667-.215-3.003-1.955-6.006-3.933-9.033-5.887-.596-.381-1.216-.739-1.764-1.192.167-.238.358-.405.548-.572zm3.099 20.378c-.143.31-.286.643-.429.953-.214.167-.452.19-.715.238-2.383.334-4.766.644-7.173 1.001-.191.024-.382.096-.572-.071-.12-.286-.215-.548-.215-.858.143-.286.429-.286.691-.334a833.09 833.09 0 017.627-1.096c.286 0 .572-.048.786.167zM30.182 1.42c.31 0 .572.095.834.215-.81 1.525-1.334 3.17-2.002 4.766-.357.858-.691 1.716-1.025 2.574-.095.239-.166.477-.405.596-.214-.286-.429-.548-.643-.834-.096-.238-.048-.453.047-.668.81-2.05 1.621-4.075 2.455-6.125.12-.31.238-.69.739-.524zM10.949 33.31c.214.07.429.142.643.237.286.167.31.453.358.74l.786 7.697c.072.835.167 1.669.262 2.503.024.214.072.429-.071.62-.524.047-.882-.215-1.049-.835 0-1.43-.238-2.836-.357-4.242-.19-2.073-.43-4.123-.62-6.197-.047-.19-.095-.357.048-.524zM23.08 48.73c-.144-1.288-.287-2.551-.406-3.838-.12-1.192-.214-2.383-.334-3.575-.119-1.24-.286-2.455-.405-3.67-.095-.906-.143-1.788-.238-2.694-.024-.31.071-.69-.334-.858.239-.119.5-.119.763-.071.214.19.238.429.262.691.453 4.48.906 8.938 1.382 13.418.024.239.048.453-.119.668-.214-.072-.405-.072-.572-.072zm-2.931-36.824l-4.576-2.931c-1.668-1.073-3.337-2.169-5.005-3.241-.214-.143-.286-.239-.167-.453v-.024c.19-.072.334-.238.572-.238.81.452 1.573 1 2.336 1.501 2.24 1.43 4.457 2.908 6.673 4.338.215.143.453.286.596.524-.143.167-.286.358-.429.524zm-7.794 21.856c.238.071.5.119.739.19.31.715.286 1.502.357 2.24.239 2.313.477 4.6.715 6.912.072.81.143 1.621.239 2.455.023.215.023.43-.12.62-.453.048-.762-.143-.93-.572 0-1.478-.238-2.932-.38-4.41a612.835 612.835 0 00-.668-6.577c-.024-.286-.071-.572.048-.858z" fill="#E74214"/><path d="M27.56 9.57c1.025-2.526 2.05-5.028 3.075-7.554.071-.191.12-.382.381-.382.263.024.525.072.74.215-.072.453-.31.858-.477 1.287-.882 2.24-1.812 4.48-2.718 6.72-.095.215-.142.454-.357.573-.215-.262-.429-.572-.643-.858zM10.186 42.413c.381-.095.238-.405.214-.62-.119-1.31-.262-2.645-.405-3.956-.167-1.549-.334-3.098-.5-4.623-.024-.215-.024-.43-.024-.644.286.096.524.263.739.43.405.476.31 1.096.357 1.644.262 2.693.572 5.41.834 8.103.024.286.12.572-.167.787-.5-.048-.953-.548-1.048-1.12zm-6.53-30.196c.071-.215.167-.382.333-.525 2.36 1.55 4.743 3.099 7.127 4.648 1.573 1.025 3.146 2.05 4.719 3.05.19.12.405.239.5.453.024.215-.071.382-.19.549-.215.071-.334-.072-.477-.167-2.193-1.43-4.362-2.837-6.554-4.267-1.669-1.096-3.337-2.192-5.03-3.265-.19-.119-.452-.19-.428-.476zm8.698 21.545c.215.477.144.977.191 1.454.215 1.883.358 3.79.572 5.696.167 1.454.334 2.907.43 4.361 0 .143.047.286-.12.358-.381.024-.596-.167-.667-.525.262-.5 0-1.024-.024-1.525-.024-.906-.19-1.811-.286-2.74-.143-1.24-.262-2.48-.405-3.742-.096-.835-.167-1.693-.239-2.527a3.737 3.737 0 00-.214-1.025c.262.072.5.143.762.215z" fill="#E74214"/><path d="M11.043 43.486c.358-.072.239-.358.215-.572a373.548 373.548 0 00-.525-5.125c-.167-1.596-.357-3.193-.524-4.79.286.024.524.167.763.31l.429 4.266c.167 1.55.381 3.075.5 4.624.048.69.358 1.43.024 2.12-.477-.095-.763-.38-.882-.833zM30.182 1.42c-.239-.024-.405.072-.5.31-.906 2.288-1.836 4.576-2.742 6.864-.024.048-.024.095-.024.167-.285-.31-.548-.62-.834-.93-.071-.167.024-.31.072-.453a572.085 572.085 0 002.264-5.672c.143-.357.31-.667.763-.477.357-.023.69.048 1 .191zm-6.579 47.31c-.143-1.311-.286-2.622-.405-3.957-.12-1.168-.215-2.36-.334-3.527a196.34 196.34 0 00-.405-3.838c-.072-.786-.191-1.572-.215-2.383-.024-.357-.119-.691-.119-1.048.167-.143.334-.143.524-.143.143 1.286.286 2.573.405 3.86.096.835.144 1.669.239 2.48.143 1.286.286 2.573.405 3.86.12 1.192.262 2.407.334 3.599.023.357.333.763 0 1.12-.143 0-.286 0-.43-.024zM11.616 25.611c-.167.262-.334.5-.524.763-.835.214-1.693.262-2.527.405-2.502.381-5.029.715-7.531 1.049-.286.047-.596.119-.691-.287-.048-.285-.143-.572-.096-.858.215.191.453.191.74.143 3.169-.476 6.315-.905 9.485-1.334.381-.024.81-.31 1.144.119zm26.05 3.313a1.107 1.107 0 01-.215-.549c-.119-.262.072-.357.239-.429.143-.071.31-.095.452-.119 2.789-.572 5.601-1.096 8.39-1.644.31-.072.69-.191.882.238.023.286 0 .572-.286.739-2.908.548-5.792 1.144-8.676 1.716-.262.047-.524.143-.786.047zM43.122 39.6c-.214.334-.405.668-.739.883-.667-.62-1.167-1.383-1.716-2.098a142.63 142.63 0 01-2.335-2.979c-.167-.238-.405-.405-.572-.62.238-.119.5-.166.762-.214.048-.048.096-.143.167-.167a.79.79 0 01.572 0c.787.953 1.526 1.93 2.288 2.884.453.572.93 1.144 1.359 1.716.071.214.238.357.214.596zM35.21 13.646c-.19.12-.429.096-.643.096-.572.071-.691-.072-.453-.668.93-2.335 1.859-4.67 2.812-7.007.143-.333.262-.667.405-.977.096-.19.143-.429.453-.357.239.095.477.214.596.453-.024.38-.238.667-.381 1-.906 2.24-1.788 4.505-2.693 6.745-.072.215-.167.453-.096.715z" fill="#E74214"/><path d="M11.042 43.486c.239.31.525.62.858.858.239.31.5.572.858.763a1.6 1.6 0 00.668.524c.214.238.476.381.762.548.143.072.382.048.334.31-1.692-.644-3.241-1.62-4.695-2.693-.93-.691-1.86-1.43-2.622-2.312.62-.453 1.335-.453 2.05-.43.333.454.548 1.002.953 1.383.215.382.5.74.834 1.049zm17.161-33.033c.787-1.978 1.573-3.933 2.36-5.91.333-.811.643-1.598.953-2.408.048-.119.095-.214.215-.286.238.024.452.095.643.215.095.214-.024.429-.095.62-1.097 2.62-2.122 5.29-3.194 7.912-.095.238-.167.477-.453.548a2.259 2.259 0 01-.429-.691zm18.9 16.683c.143-.19.191-.405.215-.643.095-.239-.048-.549.214-.74.143-.31.215-.619.215-.977.167-.19.095-.428.119-.643.19-.262.072-.572.095-.858.191-.31.072-.643.096-.977a.568.568 0 01-.12-.43.47.47 0 01.144-.333c.166.453.119.953.166 1.43.191 2.693-.023 5.363-.739 7.984l-.071.143c-.667-.405-1.096-1-1.382-1.716.071-.286.19-.524.31-.786a3.49 3.49 0 00.333-.668c.12-.262.167-.595.405-.786zM8.374 19.962c-.595.358-1.287.286-1.954.406-1.644.262-3.313.476-4.981.738-.262.048-.524 0-.787.096-.166.071-.214-.072-.238-.215 0-.286.024-.572.12-.834 1.358-.024 2.716-.334 4.05-.477.787-.095 1.574-.238 2.36-.357.191-.024.358-.048.43-.238.476.166.643.643 1 .881zm7.841 14.443c.525-.119.62.12.668.62.071 1.24.262 2.502.381 3.742.12 1.168.215 2.312.334 3.48.119 1.263.262 2.526.405 3.789.048.429.095.882.12 1.31.023.24 0 .43-.335.406a.547.547 0 01-.333-.095c-.215-1.025-.238-2.074-.358-3.123a880.2 880.2 0 01-.81-7.865c-.048-.738-.238-1.501-.072-2.264z" fill="#E74214"/><path d="M47.533 25.73c0 .262-.072.524-.215.739-.071-.358-.357-.238-.572-.19-2.884.547-5.767 1.12-8.651 1.715-.239.048-.62-.023-.668.405-.166-.214-.262-.476-.333-.738.095-.191.262-.191.453-.239 3.122-.62 6.244-1.263 9.366-1.883.215-.023.5-.166.62.191zM9.851 28.614c-1.31 0-2.598.31-3.885.476-1.406.167-2.788.406-4.194.596-.334.048-.668.072-.977.215-.12-.31-.191-.62-.215-.953 2.383-.358 4.767-.692 7.15-1.025.644-.096 1.263-.191 1.907-.262.238-.024.453-.096.667.095-.167.286-.31.572-.453.858zM.223 23.013c.024.047.024.095.048.143 0 .31-.024.643-.024.953v1.12c0 .596.095.668.691.572 1.478-.214 2.931-.405 4.41-.62 1.62-.238 3.24-.476 4.885-.715.381-.047.787.048 1.072-.333.12.143.215.31.215.5.095.43-.214.453-.5.5-1.168.192-2.336.335-3.48.501-2.193.286-4.362.62-6.554.93-.239.024-.5.119-.715-.072-.167-1.168-.215-2.335-.048-3.48zM37.737 34.81c.334-.047.453.263.596.453 1.334 1.669 2.645 3.36 3.956 5.03.048.047.048.142.072.19-.143.31-.358.548-.644.763-.786-.906-1.501-1.883-2.264-2.837-.667-.834-1.31-1.692-1.978-2.526-.262-.31-.5-.643-.834-.882a6.23 6.23 0 011.096-.19zM26.584 44.987c-.024-.071-.072-.166-.096-.238-.095-1.573-.381-3.146-.524-4.719-.12-1.215-.215-2.43-.334-3.646-.095-1.025-.214-2.026-.31-3.051.096 0 .191-.024.286-.024.286 0 .43.048.477.405.12 1.406.238 2.813.429 4.195.143.977.095 1.978.429 2.931a20.027 20.027 0 00-.357 4.147zM.984 30.759c2.288-.334 4.576-.643 6.864-.977.525-.072 1.049-.19 1.573-.215-.143.31-.262.644-.405.954-.238.214-.548.143-.81.19-2.121.31-4.242.62-6.364.906-.214.024-.452.143-.62-.12-.118-.237-.214-.476-.238-.738z" fill="#E74214"/><path d="M.246 26.468c1.168-.166 2.336-.31 3.527-.476 1.43-.19 2.86-.405 4.314-.596 1.025-.143 2.074-.286 3.099-.429.214-.024.31-.143.333-.334.096.334.525.62.12 1.001-.644-.19-1.264.072-1.883.143-1.43.167-2.86.405-4.314.596-1.383.19-2.765.405-4.147.596-.239.024-.5.024-.74.072-.333.071-.118-.287-.285-.334-.024-.096-.024-.167-.024-.239zM31.97 13.742c.547-.954.857-2.026 1.262-3.027.906-2.193 1.788-4.41 2.67-6.602.071-.167.095-.31.31-.334.19.12.357.215.548.334-.81 2.073-1.669 4.123-2.503 6.173-.381 1-.786 1.978-1.191 2.979-.096.214-.167.429-.358.572h-.739c-.024-.024-.047-.048-.024-.048 0-.047.024-.047.024-.047zM8.612 31.998c-.047.19-.095.405-.238.572-1.978.31-3.98.572-5.982.858-.19.024-.381.024-.548-.12a3.28 3.28 0 01-.358-.953c.453-.285.977-.262 1.502-.333a365.3 365.3 0 005.386-.763c.143-.024.286-.047.43.024-.072.238-.12.477-.192.715zm38.492-4.862c-.024.31-.167.572-.334.858-2.574.5-5.148 1.025-7.722 1.526-.357.071-.739.143-1.072.31-.096-.287-.215-.596-.31-.882 1.096-.358 2.24-.477 3.36-.715 1.907-.406 3.814-.763 5.72-1.144.12-.048.239-.12.358.047z" fill="#E74214"/><path d="M1.844 33.309c1.215-.167 2.407-.31 3.622-.477.835-.119 1.669-.262 2.527-.381.143-.024.286-.024.381.095-.19.382-.071.834-.31 1.192-1.716.214-3.408.453-5.1.691-.215.024-.453.095-.667-.071a3.773 3.773 0 01-.453-1.05zm26.287 7.507c.62.382.954 1.05 1.383 1.597 1.168 1.43 2.288 2.884 3.408 4.338.095.12.143.238.214.357a3.383 3.383 0 01-.858.334c-1.334-1.716-2.693-3.432-4.004-5.148a1.027 1.027 0 00-.405-.31c.048-.405.12-.786.262-1.168zM10.949 5.066c-.191.048-.334.215-.549.191 1.359-1.072 2.884-1.883 4.457-2.574 1.097-.477 2.193-.906 3.385-1.144-.096.667-.43 1.24-.668 1.835-.119.286-.476.19-.715.286-.047.024-.119.024-.167.024-.38 0-.738.095-1.096.12-.357.023-.691.142-1.049.19-.262.024-.524.12-.762.19-.262.048-.5.096-.74.191l-.428.143c-.12.048-.238.096-.358.12-.19.047-.357.142-.548.19-.238.072-.453.31-.762.238zm-.669 22.69c-1.24.167-2.455.31-3.694.477-1.406.19-2.812.405-4.195.595-.357.048-.738.096-1.096.167-.262.048-.5.072-.715-.071-.048-.215-.071-.43-.12-.644 1.383-.262 2.79-.429 4.172-.62 1.763-.262 3.527-.524 5.29-.762.263-.024.549-.12.716.19-.024.287-.286.43-.358.668z" fill="#E74214"/><path d="M10.614 27.112c-.405-.262-.81-.023-1.192.024-2.86.382-5.696.834-8.556 1.24a.606.606 0 01-.405-.096c-.048-.238-.143-.5-.12-.739.358.453.811.096 1.192.072 1.716-.19 3.432-.453 5.148-.715 1.311-.19 2.622-.358 3.933-.548.167-.024.31.024.476.047-.095.263-.285.5-.476.715zM4.63 10.739c.406.5.978.762 1.502 1.096 2.312 1.525 4.624 3.003 6.936 4.505 1.144.738 2.264 1.477 3.408 2.192.095.048.19.072.286.12-.143.095-.024.333-.214.428-.239.143-.406-.047-.572-.143a1196.774 1196.774 0 01-7.222-4.695c-1.358-.882-2.693-1.763-4.028-2.621-.167-.096-.357-.191-.453-.382.048-.19.215-.357.358-.5zm24.026.405c.596-.977.906-2.074 1.335-3.122.834-1.978 1.62-3.98 2.407-5.959.286.096.62.12.858.31-.453.5-.596 1.12-.834 1.716-.953 2.336-1.883 4.672-2.812 6.983-.12.287-.143.692-.572.74-.12-.215-.263-.43-.382-.668z" fill="#E74214"/><path d="M29.037 11.811c.572-.691.739-1.549 1.073-2.36.93-2.24 1.81-4.504 2.717-6.768.071-.19.19-.334.429-.31.143.143.405.024.524.215-.238 0-.334.19-.405.381-1.192 2.98-2.384 5.958-3.575 8.914-.096.262-.215.524-.31.786-.143-.286-.31-.572-.453-.858zm.167-10.606c-.358-.047-.5.167-.62.453-.739 1.86-1.478 3.694-2.217 5.553a5 5 0 01-.31.62c-.166-.071-.238-.286-.428-.31 0-.238-.239-.333-.334-.524.12-.548.381-1.025.572-1.55a117.914 117.914 0 011.62-3.98c.072-.19.072-.476.382-.476.5-.024.906.071 1.335.214zm-20.4 30.078c-1.001.334-2.074.358-3.123.524-1.191.191-2.407.358-3.598.525-.191.024-.382.024-.572.024-.167-.263-.239-.572-.286-.858.786.023 1.525-.167 2.288-.263 1.406-.166 2.788-.405 4.194-.595.43-.072.882-.143 1.311-.096 0 .262-.12.5-.214.74zm6.434 15.539c-.262-.023-.477-.166-.668-.31-.405-3.813-.762-7.65-1.191-11.463-.048-.334-.096-.668.143-.977.167-.072.31.047.429.143.214.095.238.286.262.5.214 2.598.524 5.172.763 7.77.119 1.191.238 2.36.38 3.55.049.24.096.55-.118.788zM46.46 28.614c-.12.262-.215.5-.335.763-.071.119-.095.286-.286.31-2.24.405-4.48.858-6.72 1.287-.334.071-.549.238-.763.452a2.816 2.816 0 01-.215-.881c-.143-.358.072-.5.358-.572.381-.096.762-.167 1.144-.239 2.002-.381 4.004-.786 6.006-1.168.31-.047.572-.166.81.048zM35.21 13.646c-.453-.119-.143-.429-.096-.596a255.17 255.17 0 011.812-4.528c.477-1.12.786-2.312 1.454-3.36l.643.429c-.906 2.288-1.835 4.6-2.765 6.888-.143.333-.214.715-.452 1.024-.167.12-.382.143-.596.143zM15.571 3.684c.382-.048.787-.167 1.168-.095.072.262.31.381.5.524 2.003 1.335 4.028 2.598 6.03 3.933.191.119.406.214.525.452-.143.239-.43.286-.644.43-.143.119-.262.023-.381-.072-2.36-1.55-4.72-3.05-7.055-4.624-.119-.095-.739-.19-.143-.548zm22.214 1.049c-.525.429-.596 1.12-.834 1.668-.954 2.24-1.812 4.528-2.741 6.793-.167.405-.072.571.357.548-.381.143-.786.095-1.191.095-.167-.19-.096-.405 0-.596 1.096-2.67 2.145-5.386 3.24-8.055.12-.286.144-.715.62-.763.239 0 .406.143.549.31zm-21.451 15.11c-1.788-1.168-3.575-2.312-5.386-3.48-2.17-1.406-4.362-2.812-6.53-4.242-.168-.12-.406-.167-.43-.429.048-.12.096-.262.215-.334.977.5 1.883 1.168 2.788 1.764 2.98 1.93 5.959 3.885 8.962 5.815.214.143.429.263.572.477 0 .167-.12.286-.191.43zm-3.36-15.539c.238-.143.477-.215.763-.215 1.215.763 2.43 1.573 3.622 2.336 1.502.977 3.003 1.978 4.529 2.932a.886.886 0 01.31.286c-.072.262-.358.262-.501.428-.19.12-.334-.023-.477-.119-2.62-1.692-5.22-3.408-7.84-5.1-.215-.095-.549-.19-.406-.548z" fill="#E74214"/><path d="M27.917.99c-.691 1.335-1.144 2.765-1.74 4.148-.262.62-.381 1.31-.858 1.859l-.858-.858c.763-1.55 1.31-3.218 2.002-4.79.12-.263.167-.62.62-.454.262-.024.572-.047.834.096zm-8.818 33.296c.071 1.383.262 2.765.405 4.171.143 1.192.214 2.383.357 3.575.12 1.24.287 2.455.406 3.67.095.906.166 1.788.238 2.694-.143 0-.31.023-.429-.072-.381-.596-.286-1.31-.358-1.978-.405-3.742-.762-7.508-1.167-11.25-.024-.262-.024-.548-.286-.714-.262 0-.5-.024-.763-.024.524-.096 1.049-.048 1.597-.072z" fill="#E74214"/><path d="M27.06.872c-.334-.048-.358.214-.453.429a875.63 875.63 0 00-1.788 4.457c-.072.19-.12.381-.357.381l-.858-.643c.071-.477.31-.906.5-1.335.453-1.12.858-2.288 1.406-3.384a.152.152 0 01.143 0c.477 0 .954-.048 1.406.095zm-8.82 33.533c.262-.047.405.024.43.358.19 2.026.428 4.028.619 6.054.167 1.573.286 3.17.429 4.742.095.93.214 1.86.31 2.789-.143-.024-.286-.024-.43-.048-.095-.953-.214-1.906-.31-2.836-.142-1.24-.285-2.502-.404-3.742-.096-1.048-.239-2.12-.31-3.17-.095-1.406-.334-2.764-.334-4.147zM15.57 3.684c-.262.19-.071.262.096.358 1.525.977 3.05 1.978 4.552 2.955.977.643 1.954 1.263 2.955 1.907-.12.214-.334.286-.524.429-.31.047-.5-.143-.715-.286-2.336-1.526-4.695-3.051-7.031-4.576-.19-.12-.524-.215-.405-.572.333-.12.69-.191 1.072-.215zm.644 30.721c.215.477.143.977.19 1.454.263 2.073.454 4.147.644 6.197.167 1.573.31 3.17.43 4.742.023.286.285.572 0 .858-.239.024-.453-.095-.644-.214.12-1.049-.095-2.074-.19-3.098-.31-3.17-.644-6.316-.954-9.462-.024-.167-.048-.358.095-.5.143.023.286.023.43.023zm30.246-5.791c-1.192.214-2.36.429-3.552.667-1.43.262-2.836.572-4.266.834-.262.048-.476.12-.476.453a2.027 2.027 0 01-.215-.739c.024-.238.215-.31.405-.333l8.008-1.573c.143-.024.286-.072.382.071a1.14 1.14 0 01-.286.62zm-8.08 2.812c-.048-.357.166-.5.476-.572 2.17-.429 4.338-.858 6.53-1.263.167-.024.358 0 .525-.024.12.382-.215.549-.358.81-.119.144-.238.31-.476.31-1.24.12-2.455.43-3.67.644-.74.143-1.454.31-2.193.453-.262.047-.5.167-.739.286-.095-.19-.072-.43-.095-.644zm4.742 8.174c-1.167-1.5-2.335-2.979-3.48-4.48-.142-.19-.333-.381-.357-.643.239-.334.572-.382.93-.382.738.763 1.358 1.645 2.025 2.479.453.548.882 1.12 1.311 1.692.096.143.262.262.239.453-.215.357-.382.667-.668.882zM10.947 5.067c.239-.12.477-.263.74-.31.142.19.333.31.523.429 2.717 1.764 5.458 3.551 8.175 5.315.19.119.405.238.525.453l-.358.428c-1.43-.929-2.86-1.835-4.29-2.764-1.692-1.096-3.36-2.193-5.053-3.29-.095-.095-.214-.142-.262-.261z" fill="#E74214"/><path d="M15.786 34.382c.167 1.596.358 3.193.525 4.79.166 1.573.286 3.17.429 4.743.095 1 .214 2.002.31 3.003.023.19.119.453-.215.524-.072 0-.167 0-.215-.071-.214-.382-.214-.81-.262-1.24-.381-3.67-.739-7.364-1.144-11.035-.024-.285-.095-.571.12-.81.143 0 .286 0 .428.024.024.024.024.048.024.072zm20.877.643c.19 0 .357.048.476.19 1.454 1.86 2.932 3.742 4.386 5.601.095.12.214.239.214.43-.119.166-.214.357-.429.405-1.692-2.05-3.337-4.171-4.957-6.292-.12-.143-.239-.263-.43-.239.24-.095.477-.095.74-.095zm3.553-28.457c-.215 0-.31.167-.382.333-.762 1.883-1.525 3.766-2.288 5.673-.047.119-.214.286-.023.429-.287.214-.644.214-.978.31-.357-.143-.119-.382-.047-.549.453-1.167.93-2.335 1.406-3.503.381-.953.762-1.907 1.168-2.86.071-.19.095-.429.357-.477.31.167.572.382.787.644zm-19.281 4.385c-.333-.071-.572-.334-.858-.5a935.765 935.765 0 01-8.056-5.268c-.143-.095-.476-.119-.31-.452.168-.096.334-.191.549-.215 2.764 1.883 5.6 3.647 8.39 5.506.238.143.524.262.571.595-.024.167-.167.263-.286.334zM2.297 34.381l5.076-.715c.239-.024.5-.119.715.096-.047.31-.071.643-.119.953-.167.167-.381.167-.596.19-1.31.191-2.645.406-3.956.549-.214.024-.429.047-.62-.096-.238-.286-.381-.62-.5-.977zM23.793 8.475c-1.43-.906-2.836-1.836-4.266-2.741-.906-.572-1.787-1.168-2.67-1.764-.142-.095-.38-.19-.118-.405.047 0 .071-.024.119-.024.238-.024.5-.095.739.024.31.477.834.643 1.287.93a560.98 560.98 0 004.862 3.17c.214.142.405.285.524.524-.12.214-.358.166-.477.286zm-9.294-4.576c.071.262.31.38.5.5 2.48 1.62 4.982 3.218 7.46 4.814.048.048.12.072.167.12-.071.19-.31.19-.429.333-1.168-.596-2.216-1.406-3.313-2.097-1.549-.977-3.098-2.002-4.647-3.003-.19-.12-.382-.262-.5-.477.238-.095.476-.214.762-.19zM3.656 12.216c1.097.858 2.312 1.526 3.456 2.312 1.43.977 2.908 1.907 4.386 2.86a509.823 509.823 0 014.647 3.027c-.048.095-.095.215-.143.31-.238.143-.405-.048-.572-.167a499.24 499.24 0 00-7.46-4.862c-1.382-.882-2.74-1.787-4.123-2.693-.19-.12-.358-.215-.429-.453a.589.589 0 01.238-.334zm33.579-7.793c-.572.548-.69 1.31-.977 1.978-.953 2.288-1.859 4.6-2.812 6.912a.984.984 0 00-.096.524h-.643c1.001-2.479 1.978-4.958 2.98-7.436.261-.62.524-1.24.762-1.883a.884.884 0 01.31-.405c.166.095.31.19.476.31zM48.056 21.87v.428l-10.582 2.074c-.477.095-.93.19-1.407.286-.19.047-.405.071-.429.31-.119-.167-.333-.286-.333-.525.119-.262.381-.31.62-.357 3.86-.715 7.721-1.55 11.582-2.264.167-.048.358-.096.549.047z" fill="#E74214"/><path d="M48.057 21.869c-3.527.691-7.055 1.382-10.582 2.097-.739.143-1.477.167-2.169.477-.119-.072-.166-.19-.214-.31.357-.357.858-.286 1.287-.381 3.885-.787 7.793-1.55 11.678-2.312.024.024.024.071.024.095-.024.12-.024.215-.024.334zM3.441 12.55c2.526 1.645 5.053 3.313 7.579 4.958 1.55 1 3.098 2.026 4.648 3.027.095.071.19.166.333.166.024.143-.071.215-.119.31-.477-.286-.953-.548-1.406-.858-2.908-1.883-5.792-3.79-8.7-5.672-.667-.43-1.334-.858-2.001-1.311-.167-.12-.405-.19-.43-.453.025-.048.048-.095.096-.167zm36.012-6.625l-2.931 7.15c-.048.095-.048.166.047.238-.238.143-.5.167-.762.214.047-.715.429-1.31.667-1.954.691-1.811 1.43-3.599 2.145-5.386.095-.215.143-.453.381-.572.215.047.334.167.453.31zm4.313 32.818c-1.144-1.454-2.312-2.908-3.456-4.362-.048-.048-.048-.143-.072-.19.215-.287.5-.358.834-.382.62.548 1.05 1.263 1.55 1.883.595.739 1.191 1.454 1.716 2.24-.143.31-.31.596-.572.81zm-28.409-4.457c.071 1.359.262 2.717.405 4.052.12 1.191.214 2.383.357 3.599.12 1.263.287 2.526.406 3.79.047.547.19 1.095.119 1.644a1.248 1.248 0 01-.644-.239c.167-.548 0-1.096-.071-1.644-.31-2.956-.596-5.91-.906-8.866-.071-.763-.286-1.55-.143-2.336.095-.071.167-.071.262-.024.072.024.143.024.215.024zm-1.836-.238c0 1.477.262 2.955.405 4.433.12 1.215.215 2.43.334 3.646.12 1.24.286 2.479.405 3.742.024.214.12.453-.119.643h-.048l-.047-.023c-.12-.096-.215-.215-.334-.31.286-.62-.024-1.24-.048-1.86-.024-.881-.167-1.763-.262-2.645a234.538 234.538 0 01-.405-3.837c-.12-1.287-.238-2.574-.334-3.86.167.023.31.047.453.07zM38.5 32.07c.024-.215.143-.31.382-.358 1.93-.381 3.837-.763 5.744-1.144.19-.048.38-.095.548.095.047.215-.072.358-.19.5-.192.192-.358.43-.692.406-.62-.024-1.192.167-1.788.286-1.072.19-2.12.429-3.193.62-.405.071-.548.286-.572.69 0 .454.119.93-.143 1.36-.048.023-.072.07-.12.095.12-.858.048-1.716.024-2.55zM2.773 35.358c1.454-.19 2.932-.381 4.386-.595.262-.048.524-.048.786-.048v1.93c-.167 0-.19-.119-.214-.238-.072-.596-.096-.62-.691-.524l-3.075.429c-.238.024-.5.095-.715-.096-.238-.262-.357-.548-.477-.858z" fill="#E74214"/><path d="M44.34 37.933c-.573-.43-.906-1.049-1.36-1.597-.643-.81-1.334-1.597-1.906-2.455.19-.334.5-.453.858-.477 1.025 1.192 1.978 2.431 2.932 3.694-.12.31-.31.572-.525.835zM14.928 34.31c.143 1.358.286 2.74.43 4.1.166 1.549.333 3.074.5 4.623l.357 3.646c.024.167.095.406-.214.453a.306.306 0 01-.239-.095c-.238-2.193-.453-4.385-.667-6.554-.19-1.86-.381-3.742-.596-5.601-.024-.215-.024-.43.167-.572.071-.072.167-.095.262 0z" fill="#E74214"/><path d="M15.238 46.822c-.047-1.406-.262-2.764-.405-4.147a83.2 83.2 0 01-.238-2.43c-.143-1.311-.286-2.622-.405-3.933-.072-.691-.072-1.406-.239-2.097.143-.048.286-.096.43 0 .19.357.166.762.19 1.144.119 1.573.31 3.146.476 4.695.191 1.907.358 3.813.62 5.696.048.286 0 .572.024.858 0 .143 0 .334-.238.334-.096-.024-.167-.048-.215-.12zm29.625-9.747c-.739-.525-1.144-1.335-1.716-2.003-.429-.524-.905-1.024-1.215-1.644.214-.334.476-.548.881-.572.715.977 1.478 1.907 2.24 2.86.144.19.335.334.24.596-.096.31-.24.548-.43.763zM19.409 24.967a.977.977 0 010-.524c.262-.143.405.047.548.19 2.145 1.764 5.22 1.407 6.84-1.287.334-.548.477-1.215.524-1.882.024-.191-.095-.477.239-.548.19.095.334.238.453.428-.167.62-.239 1.287-.5 1.907-.573 1.359-1.526 2.24-2.885 2.765-1.644.643-3.217.405-4.695-.524a5.44 5.44 0 01-.524-.525zm-2.884-5.553c-.357-.214-.739-.405-1.096-.643-2.908-1.883-5.792-3.79-8.7-5.673-.762-.5-1.525-1-2.264-1.477-.095-.072-.214-.12-.262-.263.024-.023.048-.071.072-.095.977.477 1.835 1.12 2.74 1.716 3.075 2.002 6.173 4.004 9.248 6.006.095.048.19.072.286.12-.024.095-.024.19-.024.31z" fill="#E74214"/><path d="M27.583 20.892c-.19.596-.167 1.24-.381 1.859-.358 1.168-1.168 1.954-2.145 2.526-1.74 1.025-4.076.572-5.315-.691-.096-.095-.19-.167-.334-.167 0-.167.024-.357.024-.524.286-.048.405.19.572.334.596.524 1.24.953 2.073 1.048 2.646.286 4.338-1.025 4.862-3.384.048-.262.048-.524.072-.787.024-.167-.024-.405.262-.405.143 0 .239.072.31.19z" fill="#E74214"/><path d="M28.227 21.63c.262.048.333.262.428.453-.452 2.026-1.525 3.599-3.48 4.457-1.739.763-3.431.643-5.1-.214a1.389 1.389 0 01-.548-.501c0-.429.048-.453.43-.238.643.357 1.286.667 2.025.786 2.765.381 5.387-1.24 5.982-4.147.048-.214.024-.453.263-.596zM25.677.776c-.048 0-.096.024-.12.024-.31.215-.643.12-.977.143-.786-.024-.786-.024-1.072.715-.31.787-.62 1.597-.953 2.384-.096.238-.167.524-.525.5-.262-.071-.524-.143-.762-.31.452-1.144.881-2.312 1.406-3.432.977-.119 1.978-.19 3.003-.024z" fill="#E74214"/><path d="M25.963 20.034c.119 0 .238 0 .31.119.595.786.405 1.668.071 2.455-1.192 2.812-4.314 2.931-6.101 1.43-.286-.239-.5-.5-.62-.858.048-.143.048-.334.167-.453.286-.048.357.19.453.357.81 1.097 2.216 1.573 3.503 1.168 1.24-.381 2.193-1.668 2.217-2.979 0-.238-.072-.453-.12-.691.024-.19-.047-.381.12-.548zm-12.99-15.73c.071.429.477.5.763.69 2.311 1.526 4.647 3.028 6.959 4.53.334.214.667.404 1.001.595-.095.095-.167.215-.262.31-.167.024-.31-.072-.43-.167-2.692-1.787-5.41-3.48-8.079-5.291-.19-.12-.5-.19-.357-.548a.804.804 0 01.405-.12zM45.291 36.36c-.238-.572-.739-.977-1.096-1.478-.405-.572-.882-1.096-1.311-1.668-.048-.072-.048-.19-.072-.31.096-.31.334-.453.644-.477.62.572 1.072 1.311 1.62 1.955.167.19.334.429.501.62.143.166.262.333.143.571a4.15 4.15 0 01-.429.787zm-42.064-.143c1.215-.167 2.407-.31 3.622-.477.024 0 .072-.024.096-.024.905-.19.905-.19.905.715-.095.096-.214.12-.333.143-1.12.167-2.265.358-3.385.477-.167.024-.31.024-.453-.072a2.307 2.307 0 01-.452-.762z" fill="#E74214"/><path d="M19.957 27.112a.686.686 0 01-.215-.5c-.023-.239.143-.191.287-.215.119.024.214.072.31.12 1.43.69 2.907.834 4.409.262a.333.333 0 01.142-.048 4.22 4.22 0 001.264-.644c1.072-.858 1.954-1.859 2.311-3.217.048-.19.048-.453.358-.453l.215.429c-.501 2.383-2.884 4.48-5.268 4.767a6.897 6.897 0 01-3.408-.43c-.119-.07-.262-.142-.405-.07zm25.739 8.461c-.167-.62-.691-1.001-1.049-1.502-.381-.548-.81-1.072-1.215-1.596.095-.406.429-.596.762-.763a31.5 31.5 0 001.93 2.479.746.746 0 01.12.238c-.167.381-.286.786-.548 1.144zM25.963 20.034c0 .596.238 1.144.143 1.763-.19 1.144-1.43 2.455-2.55 2.622-1.525.262-2.717-.238-3.527-1.55-.048-.07-.143-.118-.191-.166.048-.072.071-.143.12-.215.333-.166.452.143.571.334.5.668 1.168 1.073 2.002 1.168 1.668.215 3.05-1.24 3.075-2.526 0-.382.023-.787-.096-1.168-.047-.143-.095-.286.024-.405.167.024.31.024.43.143zM22.65.8c-.094.787-.5 1.454-.786 2.169-.166.429-.214.93-.62 1.24-.333-.072-.667-.144-.976-.31.476-.668.667-1.478 1-2.217.12-.262.167-.572.43-.787.286-.095.62-.119.953-.095z" fill="#E74214"/><path d="M46.245 34.405c-.81-.81-1.596-1.62-2.05-2.67-.047-.19.048-.238.215-.238.239-.071.334-.333.525-.453.572.763 1.215 1.502 1.74 2.288a2.983 2.983 0 01-.43 1.073zM21.672.896c-.333.905-.69 1.787-1.024 2.693-.072.19-.191.31-.382.31a3.599 3.599 0 01-.977-.215c.358-.667.572-1.382.882-2.073.12-.262.214-.548.548-.596.31-.072.62-.143.953-.12zm-1.715 26.216c.072-.31.238-.19.405-.119 1.692.739 3.432.739 5.1-.024 1.454-.667 2.55-1.763 3.17-3.289.12-.286.143-.62.405-.834.12.19.191.405.215.644-.167.095-.214.286-.286.429-.953 2.097-2.574 3.384-4.838 3.884-.215.048-.405.143-.62.167-.81-.047-1.644 0-2.43-.238-.382-.12-.764-.215-1.073-.477 0-.071-.024-.119-.048-.143zm-4.504 19.806c.215-.286.12-.62.096-.93a301.075 301.075 0 00-.644-6.53c-.19-1.764-.429-3.503-.524-5.267.071 0 .143 0 .214.024a.186.186 0 01.096.095c-.167.262-.048.5-.024.763.143 1.215.214 2.43.357 3.646.12 1.24.286 2.503.406 3.742.071.739.166 1.478.214 2.217.048.667.095 1.334.214 2.002.024.143.024.286-.119.38-.095-.023-.214-.047-.286-.142z" fill="#E74214"/><path d="M20.696 1.015c-.5.476-.548 1.191-.858 1.763-.167.31-.095.763-.548.906-.238 0-.477 0-.715-.024-.071-.071-.214-.024-.286-.143.12-.786.5-1.478.81-2.193a7.56 7.56 0 011.597-.31zm-.501 21.069c.072-.167.167-.31.31-.43.286.024.262.287.358.477.405.787 1.072 1.263 1.954 1.287.834 0 1.502-.381 1.907-1.144.333-.62.31-1.263.095-1.907-.072-.166-.238-.333-.143-.548a.282.282 0 01.238.024c.072 0 .12 0 .191.024.5.334.5.882.524 1.382.024 1.335-1.048 2.574-2.36 2.765a2.819 2.819 0 01-3.074-1.93zM8.254 38.552c.072.262.143.5.215.763-.096.143-.262.19-.405.214-.692.072-1.383.19-2.074.286a.594.594 0 01-.405-.071l-.644-.858c1.001-.477 2.05-.477 3.123-.5.095 0 .143.095.19.166z" fill="#E74214"/><path d="M24.675 19.843c1.072 1.55.143 3.599-1.716 3.718-.882.048-1.788-.405-2.264-1.478-.072-.143-.12-.286-.191-.429a.89.89 0 01.31-.357c.19.071.214.262.286.429.405 1.072 1.454 1.573 2.383 1.168 1.049-.453 1.406-1.407.93-2.503-.215-.5-.191-.596.262-.548zm-4.385 6.745c-.095 0-.167-.024-.214-.096-.167-.119-.382-.166-.525-.31 0-.095-.024-.214-.024-.31 1.049.716 2.17 1.073 3.432 1.073 2.193-.024 4.362-1.525 5.172-3.575.167-.405.143-.93.524-1.24.12.072.167.192.191.335-.167.095-.167.238-.214.405-.334 1.382-1.216 2.383-2.24 3.289-.048.047-.144.047-.191.071-.405.238-.835.453-1.287.644-1.597.524-3.123.405-4.624-.286zM12.57 4.423c0 .214.166.286.333.381 1.883 1.216 3.79 2.455 5.672 3.67.954.62 1.907 1.288 2.884 1.931l-.215.215c-1.501-1.12-3.098-2.05-4.647-3.075a353.324 353.324 0 00-3.861-2.526c-.167-.12-.453-.167-.453-.477.072-.048.167-.071.286-.12zM3.654 36.955c1.406-.166 2.789-.452 4.195-.548.024.072.071.143.095.215 0 .143 0 .286.024.429-.143.167-.334.19-.524.238-.954.143-1.907.262-2.86.405-.19.024-.358.024-.5-.095a1.531 1.531 0 01-.43-.644z" fill="#E74214"/><path d="M21.125 21.011c.167-.19.358-.357.62-.453.31.048.143.239.095.381-.143.573.143 1.097.715 1.311.43.167 1.001-.119 1.216-.596.214-.476.071-.977-.405-1.287-.143-.095-.43-.095-.286-.38.214-.072.405-.144.643-.12.715.405 1.025 1.096.81 1.811-.238.81-1.048 1.383-1.858 1.311a4.157 4.157 0 01-.525-.119c-.381-.19-.643-.477-.882-.81a.952.952 0 01-.166-.43v-.524c.023-.047.023-.071.023-.095zm25.574 12.322c-.691-.668-1.359-1.383-1.74-2.288.072-.12.143-.263.238-.382.096-.119.215-.214.31-.333.453.143.596.595.882.905.262.286.477.62.739.906-.19.381-.19.834-.43 1.192z" fill="#E74214"/><path d="M20.196 22.084c.31.143.333.5.524.762.691.834 1.55 1.216 2.574 1.025 1.12-.19 1.907-1.096 2.121-2.145.143-.691 0-1.287-.333-1.883.143.024.286.072.429.096.31.953.38 1.882-.143 2.764-1.073 1.812-3.6 1.978-4.839.382-.166-.215-.238-.549-.595-.572a.998.998 0 01.262-.43z" fill="#E74214"/><path d="M23.08 19.962c0 .167.143.167.263.215.524.238.81.81.667 1.287-.143.5-.834 1.049-1.24.977-.524-.071-1.12-.691-1.167-1.192-.024-.262.333-.429.143-.715a3.342 3.342 0 011.334-.572zM5.586 39.744c.953-.143 1.93-.286 2.884-.43.095.287.214.573.31.859a.494.494 0 01-.31.214c-.715.096-1.406.382-2.145.215-.286-.238-.477-.572-.74-.858zm2.668-1.192a.61.61 0 00-.453-.095l-2.86.429c-.19-.19-.357-.381-.453-.644.072-.166.215-.238.382-.262a61.487 61.487 0 013.026-.429.34.34 0 01.143.048c.072.334.143.643.215.953z" fill="#E74214"/><path d="M19.672 23.156c.452.5.905 1.049 1.572 1.335 2.694 1.167 5.291-.644 5.291-3.409 0-.333-.262-.596-.214-.93.12.144.357.025.453.215.691 2.86-1.93 5.458-4.815 4.767a7.143 7.143 0 01-.762-.238 63.507 63.507 0 00-.143-.072c-.477-.357-1.001-.667-1.382-1.168-.048-.071-.072-.143-.096-.19 0-.096.048-.215.096-.31z" fill="#E74214"/><path d="M19.552 23.466l.096.095c.333.548.881.858 1.382 1.168 2.502 1.216 5.029-.334 5.625-2.36.19-.643.047-1.287.166-1.93.191 0 .334.072.453.215-.166.095-.119.285-.143.428-.071 1.86-.881 3.242-2.598 4.052-.548.262-1.12.215-1.692.262-1 .096-1.811-.238-2.55-.786-.31-.215-.548-.5-.834-.739.024-.12.048-.262.095-.405z" fill="#E74214"/><path d="M21.244 21.535c-.024.167.024.287.119.43.143.357.405.595.739.738.667.167 1.287.191 1.811-.357.691-.715.715-1.526.024-2.24a2.519 2.519 0 01-.238-.287c.405-.095.81-.166 1.215-.023-.071 0-.167.024-.238.024-.43-.024-.334.142-.19.405.595 1.072.261 2.145-.811 2.693-1.12.548-2.407-.024-2.765-1.24-.047-.143-.071-.262-.119-.405a.61.61 0 01.334-.31l.023.024c.12.191-.023.405.096.549zM8.04 37.599c-1 .334-2.073.334-3.098.524a1.41 1.41 0 00-.452.12 1.904 1.904 0 01-.43-.644c1.288-.19 2.598-.358 3.885-.548a.9.9 0 01.096.548zm39.063-5.458c-.572-.167-.668-.786-1.049-1.12-.214-.19-.381-.453-.548-.691.143-.238.286-.5.453-.739.071-.072.143-.143.19-.215.31.668.835 1.144 1.287 1.716a4.134 4.134 0 01-.333 1.05zM28.228 21.63c-.19.954-.405 1.907-1.025 2.718-.93 1.263-2.169 2.025-3.694 2.192-1.263.143-2.503-.047-3.599-.81-.167-.12-.381-.31-.381.12-.143-.215-.096-.43-.096-.668.167-.12.263.024.358.095 1.168.834 2.479 1.192 3.885.953 1.787-.333 3.098-1.31 3.837-3.026.19-.453.31-.906.381-1.383.024-.143-.071-.381.239-.381.023.071.047.12.095.19zM6.348 40.602c.81-.143 1.62-.286 2.454-.43l.43.859c-.692.143-1.359.286-2.05.429a4.078 4.078 0 01-.834-.858zm17.256-12.751c.476-.286 1.048-.286 1.549-.5 1.716-.691 2.979-1.835 3.718-3.552.071-.166.047-.476.405-.333.024.143.071.286.095.429-.381.071-.381.429-.5.691-.525 1.096-1.359 1.883-2.36 2.503-.047.023-.143.023-.214.023-.477.263-.954.525-1.502.644-.405.095-.763.357-1.192.095zM19.1 1.325c-.024.69-.43 1.263-.644 1.883-.047.119-.071.238-.119.357-.167.095-.357.072-.524.024h-.215c-.238 0-.5-.024-.739-.024.548 0 .691-.381.858-.81.143-.405.263-.834.549-1.192.262-.143.524-.238.834-.238z" fill="#E74214"/><path d="M28.107 21.44c-.262.358-.19.81-.31 1.216-.524 2.073-2.597 3.694-4.719 3.718-1.287.023-2.454-.334-3.455-1.12-.048-.048-.143-.048-.191-.072 0-.072 0-.143-.024-.215.43.239.834.525 1.287.74 2.407 1.167 5.244.238 6.53-2.122.31-.572.596-1.215.549-1.907 0-.19.047-.31.238-.333.072 0 .12.024.095.095z" fill="#E74214"/><path d="M26.82 20.462c.406 1.478-.261 3.027-1.668 4.076-1.143.834-2.383.906-3.694.524-.166-.047-.286-.19-.429-.286.62.096 1.192.286 1.812.334 1.501.143 3.408-1.24 3.765-2.955.12-.525.167-1.049.048-1.573-.024-.096 0-.167.095-.215.024.024.048.072.072.095zm-3.218 7.389c.405.072.787-.12 1.168-.095-.762.429-1.62.429-2.455.381-.62-.024-1.215-.334-1.835-.238a1.294 1.294 0 01-.453-.668c.525.096 1.001.286 1.502.43.691.214 1.406-.024 2.073.19zM19.55 26.16c.215.047.406.118.525.309-.12 0-.262-.024-.334.12-.071-.144-.119-.287-.19-.43zm12.418-12.418v.095c-.238.024-.476.048-.69-.072.238-.023.452-.023.69-.023zM14.714 34.286l-.095-.095c.19-.024.382-.024.548.072-.071 0-.166.023-.238.023h-.215zm10.081-6.53c.5-.239.977-.5 1.501-.644-.429.382-.905.668-1.501.644zM24.46.776h1.073c-.31 1.049-.786 2.05-1.191 3.051-.215.548-.358 1.144-.74 1.62-.261-.166-.5-.333-.762-.5-.095-.143-.047-.262 0-.405.453-1.168.93-2.336 1.406-3.503a1.73 1.73 0 01.215-.263z" fill="#E74214"/><path d="M24.461.777c-.5 1.287-1.025 2.597-1.525 3.884a1.185 1.185 0 00-.096.31c-.31-.119-.595-.238-.858-.453a.742.742 0 00.334-.38c.334-.883.739-1.74 1.049-2.623.19-.595.476-.858 1.096-.738zm-6.648 2.812c.166 0 .357-.024.524-.024.071.024.143.071.238.095-.238-.024-.524.096-.762-.071zM44.41 31.498a2.151 2.151 0 00-.215.238c-.263.238-.5.5-.763.739-.215.143-.43.31-.644.453-.286.167-.572.357-.858.524l-.858.43c-.286.118-.572.214-.858.333-.333.095-.643.214-.977.31h-.643v-1.669c0-.286.119-.429.381-.476 1.597-.31 3.194-.644 4.79-.954.215-.047.453-.095.644.072zm-24.119-4.91c.572.095 1.096.357 1.692.453.906.167 1.764 0 2.622-.19.095-.025.214-.025.31-.049-.74.43-1.573.549-2.384.453-.786-.119-1.596-.167-2.24-.667z" fill="#E74214"/><path d="M24.89 26.803c.406-.262.811-.525 1.288-.644-.358.358-.787.548-1.287.644zm-2.788-4.076c-.429-.072-.667-.334-.739-.74.239.24.5.478.74.74zm-.859-1.192c-.166-.143-.095-.334-.095-.524.167.167.072.357.095.524zm.859-.334c0-.357.429-.738.786-.715.334.024.715.406.715.74 0 .357-.405.762-.763.738-.357 0-.738-.405-.738-.763zm-1.073 3.552c-.572-.262-1.168-.5-1.383-1.168.453.381.93.787 1.383 1.168zm42.211-6.677c1.645 0 2.843.357 3.594 1.072.762.703 1.144 1.674 1.144 2.914 0 .739-.155 1.436-.465 2.091-.31.644-.828 1.162-1.555 1.555-.715.394-1.692.59-2.932.59h-1.162v4.54h-2.699V18.076h4.076zm-.142 2.216h-1.233v3.79h.893c.763 0 1.365-.15 1.806-.447.453-.31.679-.805.679-1.484 0-1.24-.715-1.859-2.145-1.859zm18.875 4.147c0 1.323-.22 2.479-.662 3.468a4.955 4.955 0 01-1.984 2.288c-.894.548-2.038.822-3.432.822-1.382 0-2.526-.274-3.432-.822-.894-.548-1.56-1.317-2.002-2.306-.429-.99-.643-2.145-.643-3.468 0-1.322.214-2.473.643-3.45a4.956 4.956 0 012.002-2.27c.906-.548 2.056-.822 3.45-.822 1.382 0 2.52.274 3.414.822.894.537 1.555 1.3 1.984 2.288.441.977.662 2.127.662 3.45zm-9.313 0c0 1.335.256 2.39.768 3.164.513.763 1.335 1.144 2.467 1.144 1.156 0 1.984-.381 2.485-1.144.5-.775.75-1.83.75-3.164 0-1.346-.25-2.401-.75-3.164-.5-.762-1.323-1.144-2.467-1.144-1.144 0-1.972.382-2.485 1.144-.512.763-.768 1.818-.768 3.164zm17.372-4.29c-1.036 0-1.829.387-2.377 1.162-.548.775-.822 1.835-.822 3.182 0 1.358.25 2.413.75 3.164.513.738 1.33 1.108 2.45 1.108.524 0 1.042-.06 1.555-.179.524-.119 1.09-.286 1.698-.5v2.27a9.1 9.1 0 01-1.663.5 9.63 9.63 0 01-1.84.161c-1.312 0-2.396-.268-3.254-.804-.846-.548-1.472-1.311-1.877-2.288-.405-.99-.608-2.14-.608-3.45 0-1.287.233-2.425.697-3.414.465-.99 1.138-1.764 2.02-2.324.894-.56 1.984-.84 3.271-.84a7.38 7.38 0 011.895.25 9.62 9.62 0 011.841.644l-.876 2.198a13.769 13.769 0 00-1.447-.59 4.254 4.254 0 00-1.413-.25zm14.099 10.69l-1.537-3.951h-5.06l-1.519 3.95H94.39l4.987-12.816h1.448l4.969 12.816h-1.662zm-3.45-9.242a18.27 18.27 0 01-.179-.518c-.083-.25-.167-.507-.25-.769a10.614 10.614 0 00-.179-.626 16.21 16.21 0 01-.554 1.913l-1.448 3.861h4.04l-1.43-3.861zm9.641 9.241h-1.609v-11.35h-3.986v-1.412h9.563v1.412h-3.968v11.35zm16.68-6.399c0 1.323-.227 2.479-.68 3.468-.44.977-1.096 1.74-1.966 2.288-.87.548-1.948.822-3.235.822-1.323 0-2.425-.274-3.307-.822-.87-.548-1.519-1.317-1.948-2.306-.429-.99-.644-2.145-.644-3.468 0-1.31.215-2.455.644-3.432.429-.977 1.078-1.74 1.948-2.288.882-.548 1.99-.822 3.325-.822 1.275 0 2.347.274 3.217.822.87.537 1.526 1.3 1.966 2.288.453.977.68 2.127.68 3.45zm-10.082 0c0 1.609.34 2.878 1.019 3.808.679.917 1.74 1.376 3.182 1.376 1.454 0 2.514-.459 3.182-1.377.667-.929 1.001-2.198 1.001-3.807s-.334-2.866-1.001-3.771c-.668-.918-1.722-1.377-3.164-1.377-1.442 0-2.509.459-3.2 1.377-.679.905-1.019 2.162-1.019 3.771zm18.541 6.4l-4.201-11.19h-.071c.036.369.065.87.089 1.501.024.62.036 1.27.036 1.949v7.74h-1.484V18.075h2.378l3.932 10.456h.072l4.004-10.456h2.359v12.762h-1.591V22.99c0-.62.012-1.233.036-1.84l.09-1.485h-.072l-4.254 11.172h-1.323z" fill="#E74214"/></svg>