<svg width="132" height="37" fill="none" xmlns="http://www.w3.org/2000/svg"><g clip-path="url(#clip0_1_428)" fill="#EA4C14"><path fill-rule="evenodd" clip-rule="evenodd" d="M.926.813h17.757L30.482 14.55l1.286 1.514.937 1.397 1.05 1.98 1.053 2.793.584 2.095.35 2.562v9.547h-15.07v-8.616l-.234-.93-.234-1.515-.586-1.63-.583-1.513-1.402-2.212-2.57-3.143L.925.812zm36.569 0h18.459L38.661 20.256l-.933 1.629-.468 1.048-.234-1.514-.703-2.096-1.402-2.677-1.75-2.678-1.87-2.21-1.636-1.864 7.83-9.082z"/><path d="M78.035.813H62.027v35.624h16.008V.813z"/><path fill-rule="evenodd" clip-rule="evenodd" d="M98.482 16.18H86.564V.813h14.605l.935.117 1.518.233 1.287.464 1.867.584-1.167 1.048-1.402 1.279-1.401 1.747-1.052 1.863-1.053 2.095-.582 2.445-.352 2.328-.35 1.63-.35-.349c-.353-.117-.585-.117-.585-.117zM117.06.813h14.017V14.9h-10.746l-1.051.115-.936.349-.934.582-.701.816-.47 1.048-.348 1.164-.118 1.047v16.416h-14.138V16.994l.12-1.278.349-1.98.584-1.746.818-1.864 1.169-2.212 1.634-2.095 1.871-1.745 1.985-1.281 1.754-.933 1.753-.581 2.687-.466h.701z"/></g><defs><clipPath id="clip0_1_428"><path fill="#fff" transform="translate(.926 .813)" d="M0 0h130.15v35.625H0z"/></clipPath></defs></svg>