<svg width="126" height="48" fill="none" xmlns="http://www.w3.org/2000/svg"><path d="M24.166.853c2.443.048 5.396.496 8.27 1.552 3.799 1.391 6.895 3.71 9.53 6.75 1.771 2.048 3.112 4.351 4.198 6.783.878 1.983 1.548 4.03 1.963 6.19.335 1.712.527 3.424.543 5.135.032 2.72-.288 5.423-1.293 7.983-.431 1.103-1.31 1.615-2.49 1.631-.703 0-.878-.272-.591-.864.702-1.44 1.133-2.975 1.389-4.543.558-3.359.479-6.718-.4-10.03-1.532-5.742-4.39-10.605-9.386-13.98-4.421-2.976-9.338-3.984-14.606-3.44-2.586.272-5.044.944-7.327 2.176-2.921 1.584-5.38 3.727-7.28 6.495a19.257 19.257 0 00-2.41 4.83c-.894 2.688-1.229 5.471-.941 8.319.271 2.671 1.149 5.135 2.203 7.598.526 1.216-1.166 1.264-1.788 1.888-.48.48-.719-.048-.926-.416a23.377 23.377 0 01-2.475-7.583c-.367-2.48-.287-4.927.064-7.39.224-1.552.719-3.055 1.277-4.511 1.022-2.591 2.507-4.88 4.39-6.943a22.42 22.42 0 017.248-5.326C16.568 1.653 19.983.853 24.166.853z" fill="#E74214"/><path d="M43.323 27.44c.208 4.19-.958 7.821-3.193 11.117-1.692 2.495-3.927 4.399-6.577 5.887-3.83 2.127-7.901 2.975-12.227 2.623-3.863-.32-7.407-1.568-10.696-3.663-2.043-1.312-3.75-2.944-5.331-4.751-.463-.528-.511-.912.112-1.344.558-.4 1.053-1.136 1.66-1.152.606-.016.91.864 1.357 1.328 2.713 2.88 5.89 4.927 9.753 5.95 2.97.785 5.922.977 8.875.225 4.71-1.2 8.62-3.615 11.159-7.903 1.245-2.095 1.931-4.399 2.187-6.83.463-4.56-.83-8.638-3.369-12.397-.766-1.136-1.676-2.112-2.713-2.992-.336-.288-.431-.544-.048-.896.527-.48.814-1.391 1.5-1.471.703-.08 1.134.784 1.645 1.263 1.788 1.712 3.08 3.776 4.102 6 1.31 2.942 2.027 5.966 1.804 9.005z" fill="#E74214"/><path d="M6.128 23.984c.032-6.958 4.246-13.197 10.616-15.804 3.384-1.392 6.848-1.6 10.423-1.024 1.82.304 3.528.88 5.188 1.647.99.464 1.006.544.431 1.424-.032.048-.063.08-.095.128-.815 1.408-.783 1.344-2.347.736-2.586-1.008-5.268-1.472-8.077-1.168-3.432.368-6.385 1.664-8.764 4.143-3.368 3.504-4.661 7.695-3.735 12.51.925 4.815 3.751 8.206 8.14 10.173 2.635 1.168 5.46 1.728 8.365.8.336-.112.527-.064.655.32.24.704.51 1.392.782 2.064.24.592-.255.624-.575.72-2.155.64-4.341.672-6.544.303-3.656-.591-6.817-2.223-9.45-4.814-2.251-2.224-3.768-4.895-4.534-7.983a16.594 16.594 0 01-.479-4.175z" fill="#E74214"/><path d="M12.019 24.096c-.16-4.879 3.496-9.582 8.316-10.845.655-.176.958.016 1.054.655.016.08.032.16.032.24.24 1.936.224 1.872-1.596 2.72-3.05 1.424-5.029 4.927-4.454 8.382.67 4.08 4.278 6.99 8.141 6.783 2.363-.128 4.853-1.632 4.98-4.495.033-.752.464-.96 1.118-1.024 2.14-.176 2.011-.192 1.82 1.76-.303 3.199-2.219 5.31-5.124 6.382-3.13 1.152-6.162.56-9.004-1.104-3.16-1.807-5.49-5.695-5.283-9.454z" fill="#E74214"/><path d="M37.432 26.623c-.128 5.151-2.187 9.166-6.274 12.11-.415.303-.702.288-.958-.192a11.056 11.056 0 00-.67-1.088c-.527-.72-.32-1.152.399-1.6 1.485-.944 2.554-2.255 3.368-3.823.99-1.888 1.245-3.887 1.07-5.95-.224-2.704-1.31-5.072-3.177-7.04-1.74-1.839-3.943-2.719-6.417-2.959-.495-.047-.654-.223-.623-.687.016-.24 0-.48 0-.72.016-1.792.032-1.888 1.82-1.616 3.704.56 6.689 2.32 8.86 5.455 1.724 2.495 2.506 5.247 2.602 8.11z" fill="#E74214"/><path d="M23.16 18.625c3.4.048 5.667 1.104 7.104 3.647.207.368.35.768.51 1.152.144.4-.143.528-.447.592-.287.064-.59.048-.862.112-.782.176-1.372.224-1.883-.672-.91-1.6-2.506-2.048-4.246-1.904-1.07.096-1.772.8-2.075 1.824-.272.896.063 1.632.718 2.223.75.688 1.596.928 2.554.448.383-.192.814-.271 1.085-.64.336-.48.527-.4.847.08.861 1.264-.32 3.056-1.437 3.536-2.14.912-4.725-.176-5.907-1.888-1.724-2.495-1.197-5.63 1.214-7.422.973-.768 2.139-1.072 2.825-1.088zM63.606 24.8V11.367h10.96V24.8h3.85V8.252h-18.66V24.8h3.851zm33.762-13.597H86.98v10.49h10.387V18.13l3.851.798v1.957c0 1.498-.279 2.526-.837 3.084-.595.553-1.686.83-3.272.83h-9.871c-1.587 0-2.677-.277-3.272-.83-.559-.558-.838-1.586-.838-3.084v-8.72c0-1.493.28-2.518.838-3.077.59-.558 1.68-.837 3.272-.837h9.87c1.592 0 2.683.28 3.273.837.558.559.837 1.584.837 3.077v1.573l-3.851.61v-3.146zm22.161 0h-10.388v10.49h10.388V18.13l3.851.798v1.957c0 1.498-.279 2.526-.838 3.084-.595.553-1.685.83-3.272.83h-9.87c-1.587 0-2.678-.277-3.272-.83-.559-.558-.838-1.586-.838-3.084v-8.72c0-1.493.279-2.518.838-3.077.589-.558 1.68-.837 3.272-.837h9.87c1.592 0 2.683.28 3.272.837.559.559.838 1.584.838 3.077v1.573l-3.851.61v-3.146zM59.622 35.85v-7.355h6.711l-.796 1.284h-4.203v6.07h-1.712zm13.242-6.085h-3.848v1.952h3.848c.299 0 .503-.043.612-.13.104-.085.157-.237.157-.455v-.783c0-.218-.053-.37-.157-.455-.109-.086-.313-.13-.612-.13zm-5.528 6.085v-7.355h6.283c.577 0 1.005.11 1.283.33.258.226.387.59.387 1.096v1.639c0 .494-.13.855-.387 1.082-.271.23-.699.344-1.283.344h-4.603v2.864h-1.68zm12.204-2.937h3.222l-1.597-2.992-1.625 2.992zm-3.29 2.937l4.146-7.355h1.653l4.22 7.355h-1.924l-.884-1.611H78.8l-.856 1.61H76.25zm19.913 0v-7.355h-1.168L89.82 32.83a5.3 5.3 0 00-.47.396 7.704 7.704 0 00-.368.4l.028-.483c.011-.174.02-.303.027-.386.01-.114.014-.247.014-.4v-3.862h-1.537v7.355h1.169l5.399-4.547a5.75 5.75 0 00.34-.314 4 4 0 00.272-.285 8.086 8.086 0 01-.027.334 6.99 6.99 0 00-.042.835v3.977h1.537zm-5.886-7.355v-1.252h3.322v1.252h-3.322zm12.344 1.312v6.043h-1.708v-6.043h-3.378v-1.312h8.478v1.312h-3.392zm4.165 6.043v-7.355h7.525v1.256h-5.814v1.639h3.392v1.252h-3.392v1.826h5.887v1.382h-7.598zm9.084 0v-7.355h1.725v3.065l4.074-3.065h2.481l-4.874 3.465 5.472 3.89h-2.752l-4.401-3.236v3.236h-1.725z" fill="#E74214"/></svg>