<svg width="157" height="32" fill="none" xmlns="http://www.w3.org/2000/svg"><g clip-path="url(#clip0_1_494)" fill="#E74214"><path fill-rule="evenodd" clip-rule="evenodd" d="M15.658 31.84h.023L31.35 16.126 15.669.4 0 16.115v.023L15.658 31.84z"/><path d="M18.897 14.16h-7.7V8.42H9.909v15.412h1.29v-8.371h7.7v-1.3zM7.496 10.842h1.296v10.57H7.496v-10.57zm-2.402 2.461h1.29v5.692h-1.29v-5.692z"/><path d="M20.14 16.754h-7.738v1.293h7.738v5.785h1.29V8.421h-1.29v8.333zm2.405-5.912h1.296v10.57h-1.296v-10.57zm2.41 2.461h1.29v5.692h-1.29v-5.692zM44.498 7.15v6.656h-2.796V7.15h-4.456v17.784h4.456v-6.656h2.796v6.656h4.457V7.15h-4.457zm13.038 6.657h-2.798v-.78c0-.775.627-1.404 1.4-1.404.773 0 1.4.629 1.4 1.404h-.002v.78zm-1.399-6.65c-3.233 0-5.854 2.628-5.854 5.87v11.91h4.455v-6.658h2.798v6.657h4.455V13.027c0-3.242-2.62-5.87-5.854-5.87zm18.878-.007v.002l-3.62 6.289-3.622-6.29h-4.455v17.783h4.454v-8.83l3.373 5.86s.078.15.25.15c.171 0 .244-.14.244-.14l3.376-5.864v8.824h4.466V7.15h-4.466zm17.49.004v.002l-3.62 6.288-3.621-6.29-.002.001h-4.453v17.783h4.453v-8.83l3.373 5.86s.078.15.25.15c.171 0 .245-.141.245-.141l3.375-5.864v8.825h4.466V7.154h-4.466zm16.05 4.469V7.15H98.4v17.784h10.155v-4.472h-5.698v-2.184h5.698v-4.472h-5.698v-2.183h5.698zm5.782 0h1.243a2.18 2.18 0 012.176 2.182 2.18 2.18 0 01-2.176 2.183h-1.243v-4.365zm4.625 7.844a6.655 6.655 0 003.146-5.66c0-3.676-2.971-6.657-6.637-6.657h-5.59v17.784h4.456v-4.571l2.626 4.571 5.145.002-3.144-5.469h-.002zm19.806-7.844V7.15h-10.155v17.784h4.457v-6.656h5.698v-4.472h-5.698v-2.183h5.698zm1.433-4.473h4.456v17.784h-4.456V7.15zm5.781 0v4.473h2.899v13.311h4.456V11.623h2.902V7.15h-10.257zM40.328 29.062a1.42 1.42 0 00-.121-.316.881.881 0 00-.484-.412 1.124 1.124 0 00-.378-.058c-.21 0-.39.042-.544.127a1.064 1.064 0 00-.372.34 1.54 1.54 0 00-.213.485 2.24 2.24 0 000 1.107c.046.181.117.343.213.485.096.142.22.255.372.34.153.085.335.128.544.128a.907.907 0 00.712-.302c.086-.094.151-.204.2-.33.047-.125.078-.26.093-.404h.674a1.884 1.884 0 01-.152.648 1.544 1.544 0 01-.87.836c-.135.053-.28.088-.435.105h-.451a1.761 1.761 0 01-1.157-.597 1.997 1.997 0 01-.373-.66 2.45 2.45 0 01-.129-.802c0-.28.043-.547.13-.798.086-.25.21-.47.372-.659a1.774 1.774 0 011.386-.614c.221 0 .43.03.624.091.195.061.367.15.517.266.149.116.27.257.361.424.092.166.15.356.171.57h-.69zm4.418-1.257h2.838v.598h-2.148v1.035h1.988v.565h-1.988v1.157h2.187v.598h-2.877v-3.953zm6.194 0h3.191v.598h-1.253v3.355h-.69v-3.355H50.94v-.598zm7.432 3.388h1.021c.092 0 .179-.009.26-.028a.514.514 0 00.364-.304.813.813 0 00.055-.321.685.685 0 00-.063-.313.552.552 0 00-.166-.2.677.677 0 00-.223-.107.902.902 0 00-.238-.034h-1.01v1.307zm-.69-3.388h.69v1.517h1.049c.28 0 .508.04.685.119.176.08.313.18.408.302.096.121.161.253.196.395.035.143.053.274.053.396s-.018.255-.053.4c-.035.143-.1.276-.196.398a1.08 1.08 0 01-.408.304c-.177.082-.405.122-.685.122h-1.74v-3.953zm14.263 1.915c0-.132-.016-.257-.047-.373a.83.83 0 00-.42-.537 1.206 1.206 0 00-.411-.125v2.066c.162-.023.299-.064.411-.125a.829.829 0 00.42-.534c.031-.115.047-.239.047-.371zm-2.44 0c0 .133.014.257.043.372a.834.834 0 00.42.534c.11.06.247.102.408.125v-2.06a1.16 1.16 0 00-.408.124.834.834 0 00-.42.534 1.47 1.47 0 00-.044.372zm.871 1.584a2 2 0 01-.668-.166 1.553 1.553 0 01-.483-.34 1.34 1.34 0 01-.292-.482 1.774 1.774 0 01-.097-.595c0-.215.03-.414.091-.599a1.32 1.32 0 01.282-.484c.127-.138.287-.251.48-.338a2.12 2.12 0 01.688-.163v-.498h.69v.498a2.1 2.1 0 01.687.163 1.345 1.345 0 01.765.822c.063.185.094.384.094.599 0 .214-.033.412-.1.595a1.393 1.393 0 01-.292.481 1.51 1.51 0 01-.483.341 2.03 2.03 0 01-.671.166v.454h-.69v-.454zm5.904-3.499h.69v2.945l1.673-2.945h.811v3.953h-.69V28.79l-1.695 2.968h-.79v-3.953zm6.718 0h3.192v.598h-1.254v3.355h-.69v-3.355h-1.248v-.598zm6.727 0h.69v1.572h1.794v-1.572h.69v3.953h-.69v-1.783h-1.794v1.783h-.69v-3.953zm7.093 0h2.838v.598h-2.148v1.035h1.988v.565H97.51v1.157h2.186v.598h-2.877v-3.953zm9.233 1.257c-.03-.115-.07-.22-.122-.316a.865.865 0 00-.483-.412 1.124 1.124 0 00-.378-.058c-.21 0-.391.042-.544.127a1.053 1.053 0 00-.372.34 1.534 1.534 0 00-.213.485 2.24 2.24 0 000 1.107c.046.181.117.343.213.485.095.142.219.255.372.34.153.085.334.128.544.128a.982.982 0 00.409-.08.893.893 0 00.303-.222c.085-.094.151-.204.199-.33a1.58 1.58 0 00.094-.404h.674a1.895 1.895 0 01-.152.648 1.541 1.541 0 01-.87.836 1.694 1.694 0 01-.436.105h-.451a1.76 1.76 0 01-1.156-.597 2.007 2.007 0 01-.373-.66 2.463 2.463 0 01-.129-.802c0-.28.043-.547.129-.798.087-.25.211-.47.373-.659a1.776 1.776 0 011.386-.614c.221 0 .429.03.624.091s.367.15.516.266c.149.116.27.257.362.424.092.166.149.356.171.57h-.69zm4.267.891h1.607v.598h-1.607v-.598zm5.389-2.148h.69v1.8l1.756-1.8h.851l-1.574 1.578 1.684 2.375h-.861l-1.292-1.888-.564.559v1.329h-.69v-3.953zm6.683 3.377c.096 0 .178-.02.246-.06a.525.525 0 00.174-.175.975.975 0 00.113-.266 2.81 2.81 0 00.069-.335l.042-.335a9.464 9.464 0 00.049-.626c.006-.112.009-.242.011-.39l.006-.51c.002-.191.003-.418.003-.68h2.716v3.953h-.69v-3.355h-1.38c-.008.243-.012.46-.014.647a25.64 25.64 0 01-.011.524 7.46 7.46 0 01-.097.95 3.66 3.66 0 01-.088.39 1.38 1.38 0 01-.191.41 1.135 1.135 0 01-.339.323.988.988 0 01-.536.133 1.659 1.659 0 01-.309-.022v-.598l.116.017c.033.003.07.005.11.005zm7.536 0c.14 0 .271-.043.392-.13a.777.777 0 00.271-.351l-1.298-2.896h.823l.9 2.209h.011l.916-2.21h.773l-1.303 2.902c-.169.38-.371.654-.604.822-.234.168-.5.252-.798.252a1.741 1.741 0 01-.31-.022v-.598l.116.017c.034.003.07.005.111.005zm6.963.011h1.022c.092 0 .178-.009.259-.028a.513.513 0 00.365-.304.826.826 0 00.055-.321.677.677 0 00-.064-.313.55.55 0 00-.165-.2.689.689 0 00-.224-.107.899.899 0 00-.237-.034h-1.011v1.307zm-.69-3.388h2.722v.598h-2.032v.919h1.05c.279 0 .507.04.684.119.177.08.313.18.409.302.095.121.161.253.196.395.035.143.052.274.052.396s-.017.255-.052.4a1.045 1.045 0 01-.196.398 1.081 1.081 0 01-.409.304c-.177.082-.405.122-.684.122h-1.74v-3.953zm8.453.471c-.21 0-.391.042-.544.127a1.074 1.074 0 00-.373.34 1.555 1.555 0 00-.212.485 2.24 2.24 0 000 1.107c.046.181.117.343.212.485.096.142.221.255.373.34.153.085.334.128.544.128.21 0 .391-.043.544-.128a1.07 1.07 0 00.373-.34c.095-.142.166-.304.212-.485a2.236 2.236 0 000-1.107 1.555 1.555 0 00-.212-.485 1.065 1.065 0 00-.373-.34 1.101 1.101 0 00-.544-.127zm.23 3.565h-.46a1.751 1.751 0 01-1.156-.597 2.007 2.007 0 01-.373-.66 2.463 2.463 0 01-.129-.802c0-.28.043-.547.129-.798.087-.25.211-.47.373-.659.162-.188.36-.337.593-.448.234-.11.498-.166.793-.166a1.776 1.776 0 011.386.614c.162.189.286.408.372.66.087.25.13.516.13.797 0 .284-.043.552-.13.803-.086.25-.21.47-.372.659a1.745 1.745 0 01-1.156.597zm6.07-.648h1.22c.21 0 .372-.054.489-.163.116-.11.173-.263.173-.462 0-.196-.057-.346-.173-.452-.117-.105-.279-.157-.489-.157h-1.22v1.234zm0-1.733h1.126a.615.615 0 00.414-.14c.111-.095.166-.23.166-.408 0-.2-.05-.34-.149-.42-.1-.082-.243-.123-.431-.123h-1.126v1.091zm-.69-1.655h1.915c.354 0 .637.081.851.243.213.163.32.408.32.737a.88.88 0 01-.147.512.936.936 0 01-.416.33v.01a.86.86 0 01.552.346c.125.18.188.404.188.673 0 .155-.028.3-.083.435a.881.881 0 01-.26.348 1.31 1.31 0 01-.452.233 2.241 2.241 0 01-.657.086h-1.811v-3.953z"/></g><defs><clipPath id="clip0_1_494"><path fill="#fff" transform="translate(0 .4)" d="M0 0h156.24v31.44H0z"/></clipPath></defs></svg>