<svg width="140" height="20" fill="none" xmlns="http://www.w3.org/2000/svg"><g clip-path="url(#clip0_1_468)" fill-rule="evenodd" clip-rule="evenodd" fill="#E74214"><path d="M133.199 18.563V5.693h6.066V1.437h-17.619v4.254h6.067v12.871h5.486zm-33.602 0v-4.148h-8.282c-.317 0-.791 0-1.055-.213a.9.9 0 01-.264-.638v-1.862h9.284V7.98h-9.284V6.703c0-.213 0-.638.264-.851.21-.16.527-.266.844-.266h8.388V1.437h-12.24c-.632 0-1.423.107-2.056.692s-.739 1.276-.739 1.968V15.85c0 .798 0 1.489.791 2.18.633.532 1.372.585 2.058.585h12.291v-.053zm-36.136-4.201h-1.635v4.201h20.099v-4.201h-1.688L75.7 3.352c-.317-.85-1.055-1.914-3.851-1.914-2.849 0-3.534 1.063-3.85 1.914l-4.538 11.01zm8.124-7.393c.053-.16.106-.426.264-.426.158 0 .211.266.264.426l2.69 7.34h-5.908l2.69-7.34zm40.988-1.382c.317 0 .581 0 .845.266.263.266.263.585.263.904v11.86h5.486V3.938c0-.585-.105-1.17-.633-1.755-.685-.692-1.476-.745-2.479-.745h-10.709c-.791 0-1.793-.053-2.532.745-.528.532-.632 1.17-.632 1.755v14.626h5.486V6.704c0-.32 0-.639.263-.905.264-.265.58-.265.844-.265h3.798v.053zM39.088 18.563h5.697l1.319-3.51h6.066l1.32 3.51h5.697L52.962 3.46c-.792-1.915-2.216-2.075-3.851-2.075-2.585 0-3.324.798-3.851 2.075l-6.172 15.104zM48.9 6.916c.053-.107.158-.373.21-.373.053 0 .16.266.212.373l1.53 4.308H47.37l1.53-4.308zM17.31 1.384l-4.976 5.111 7.37 8.708 10.983-.047L17.31 1.384z"/><path d="M15.853 15.913l1.408-1.42-5.82-7.099L.598 18.563h33.608l-2.581-2.603-15.772-.047z"/></g><defs><clipPath id="clip0_1_468"><path fill="#fff" transform="translate(.16 .88)" d="M0 0h139.68v18.24H0z"/></clipPath></defs></svg>