<svg width="206" height="218" fill="none" xmlns="http://www.w3.org/2000/svg"><path stroke="#fff" stroke-width="2" d="M171 1v216H1V1z"/><path fill="#EA4C14" d="M206 0v218h-44V0z"/><path d="M168.836 188.94c0 2.054.84 3.08 2.52 3.08.794 0 1.4-.233 1.82-.7.467-.513.7-1.306.7-2.38v-16.8c0-1.073-.233-1.843-.7-2.31-.42-.513-1.026-.77-1.82-.77-1.68 0-2.52 1.027-2.52 3.08v16.8zm-4.9-16.45c0-2.52.63-4.456 1.89-5.81 1.26-1.353 3.104-2.03 5.53-2.03 2.427 0 4.27.677 5.53 2.03 1.26 1.354 1.89 3.29 1.89 5.81v16.1c0 2.52-.63 4.457-1.89 5.81-1.26 1.354-3.103 2.03-5.53 2.03-2.426 0-4.27-.676-5.53-2.03-1.26-1.353-1.89-3.29-1.89-5.81v-16.1zm26.74-7.49h4.55l-19.32 49h-4.55l19.32-49zm2.45 41.86c0 2.054.84 3.08 2.52 3.08.794 0 1.4-.233 1.82-.7.467-.513.7-1.306.7-2.38v-16.8c0-1.073-.233-1.843-.7-2.31-.42-.513-1.026-.77-1.82-.77-1.68 0-2.52 1.027-2.52 3.08v16.8zm-4.9-16.45c0-2.52.63-4.456 1.89-5.81 1.26-1.353 3.104-2.03 5.53-2.03 2.427 0 4.27.677 5.53 2.03 1.261 1.354 1.891 3.29 1.891 5.81v16.1c0 2.52-.63 4.457-1.891 5.81-1.26 1.354-3.103 2.03-5.53 2.03-2.426 0-4.27-.676-5.53-2.03-1.26-1.353-1.89-3.29-1.89-5.81v-16.1z" fill="#fff"/><path d="M45.373 169.319h16.08v9.36h-16.08v16.44h-9.36v-16.44h-16.08v-9.36h16.08v-16.2h9.36v16.2zm51.297-16.68c0-3.76-.64-6.28-1.92-7.56-1.2-1.36-2.84-2.04-4.92-2.04s-3.76.64-5.04 1.92c-1.2 1.2-1.8 3.32-1.8 6.36v9H70.51v-8.16c0-6.8 1.64-12 4.92-15.6 3.36-3.68 8.28-5.52 14.76-5.52s11.361 1.84 14.641 5.52c3.36 3.6 5.04 8.8 5.04 15.6 0 4.4-.64 8.4-1.92 12-1.28 3.52-2.92 6.76-4.92 9.72a62.45 62.45 0 01-6.36 8.04c-2.24 2.48-4.36 4.84-6.36 7.08-1.92 2.24-3.52 4.44-4.8 6.6-1.28 2.08-1.92 4.28-1.92 6.6 0 .8.04 1.4.12 1.8h24.96v12h-38.16v-10.32c0-4.08.64-7.68 1.92-10.8 1.28-3.12 2.88-5.96 4.8-8.52 2-2.64 4.12-5.08 6.36-7.32 2.24-2.32 4.32-4.76 6.24-7.32 2-2.56 3.64-5.36 4.92-8.4 1.28-3.04 1.92-6.6 1.92-10.68zm34.739 44.04c0 3.04.6 5.2 1.8 6.48 1.28 1.2 2.96 1.8 5.04 1.8s3.72-.6 4.92-1.8c1.28-1.28 1.92-3.44 1.92-6.48v-45.36c0-3.04-.64-5.16-1.92-6.36-1.2-1.28-2.84-1.92-4.92-1.92s-3.76.64-5.04 1.92c-1.2 1.2-1.8 3.32-1.8 6.36v45.36zm-13.2-44.52c0-6.8 1.72-12 5.16-15.6 3.44-3.68 8.4-5.52 14.88-5.52s11.44 1.84 14.88 5.52c3.44 3.6 5.16 8.8 5.16 15.6v43.68c0 6.8-1.72 12.04-5.16 15.72-3.44 3.6-8.4 5.4-14.88 5.4s-11.44-1.8-14.88-5.4c-3.44-3.68-5.16-8.92-5.16-15.72v-43.68z" fill="#EA4C14"/></svg>